<?xml version="1.0" encoding="UTF-8"?>
<svg id="Layer_1" data-name="Layer 1" xmlns="http://www.w3.org/2000/svg" xmlns:xlink="http://www.w3.org/1999/xlink" viewBox="0 0 271.7 290.87">
  <defs>
    <style>
      .cls-1 {
        fill: url(#radial-gradient-7);
      }

      .cls-2 {
        fill: url(#radial-gradient-10);
      }

      .cls-3 {
        fill: url(#radial-gradient-28);
      }

      .cls-4 {
        fill: url(#radial-gradient-16);
      }

      .cls-5 {
        fill: url(#radial-gradient-20);
      }

      .cls-6 {
        fill: url(#radial-gradient-21);
      }

      .cls-7 {
        fill: url(#radial-gradient-8);
      }

      .cls-8 {
        fill: url(#radial-gradient-5);
      }

      .cls-9 {
        fill: url(#radial-gradient-4);
      }

      .cls-10 {
        fill: url(#radial-gradient-25);
      }

      .cls-11 {
        fill: url(#radial-gradient-26);
      }

      .cls-12 {
        fill: url(#radial-gradient-22);
      }

      .cls-13 {
        fill: url(#radial-gradient-6);
      }

      .cls-14 {
        fill: url(#radial-gradient-19);
      }

      .cls-15 {
        fill: url(#radial-gradient-12);
      }

      .cls-16 {
        fill: url(#radial-gradient);
      }

      .cls-17 {
        fill: url(#radial-gradient-27);
      }

      .cls-18 {
        fill: url(#radial-gradient-13);
      }

      .cls-19 {
        fill: url(#radial-gradient-24);
      }

      .cls-20 {
        fill: url(#radial-gradient-15);
      }

      .cls-21 {
        fill: url(#radial-gradient-2);
      }

      .cls-22 {
        fill: url(#radial-gradient-3);
      }

      .cls-23 {
        fill: url(#radial-gradient-17);
      }

      .cls-24 {
        fill: url(#radial-gradient-14);
      }

      .cls-25 {
        fill: #272361;
      }

      .cls-26 {
        fill: url(#radial-gradient-29);
      }

      .cls-27 {
        fill: #272660;
      }

      .cls-28 {
        fill: url(#radial-gradient-23);
      }

      .cls-29 {
        fill: url(#radial-gradient-11);
      }

      .cls-30 {
        fill: url(#radial-gradient-18);
      }

      .cls-31 {
        fill: url(#radial-gradient-9);
      }
    </style>
    <radialGradient id="radial-gradient" cx="135.98" cy="135.98" fx="135.98" fy="135.98" r="88.4" gradientUnits="userSpaceOnUse">
      <stop offset="0" stop-color="#ffd041"/>
      <stop offset="1" stop-color="#febf10"/>
    </radialGradient>
    <radialGradient id="radial-gradient-2" cx="135.99" cy="32.27" fx="135.99" fy="32.27" r="51.52" xlink:href="#radial-gradient"/>
    <radialGradient id="radial-gradient-3" cx="242.27" cy="137.98" fx="242.27" fy="137.98" r="33.29" xlink:href="#radial-gradient"/>
    <radialGradient id="radial-gradient-4" cx="246.82" cy="94.36" fx="246.82" fy="94.36" r="8.05" xlink:href="#radial-gradient"/>
    <radialGradient id="radial-gradient-5" cx="235.86" cy="98.73" fx="235.86" fy="98.73" r="7.65" xlink:href="#radial-gradient"/>
    <radialGradient id="radial-gradient-6" cx="252.3" cy="112.13" fx="252.3" fy="112.13" r="7.88" xlink:href="#radial-gradient"/>
    <radialGradient id="radial-gradient-7" cx="240.54" cy="115.05" fx="240.54" fy="115.05" r="7.59" xlink:href="#radial-gradient"/>
    <radialGradient id="radial-gradient-8" cx="254.7" cy="132.88" fx="254.7" fy="132.88" r="7.68" xlink:href="#radial-gradient"/>
    <radialGradient id="radial-gradient-9" cx="242.1" cy="133.2" fx="242.1" fy="133.2" r="7.64" xlink:href="#radial-gradient"/>
    <radialGradient id="radial-gradient-10" cx="253.43" cy="152.57" fx="253.43" fy="152.57" r="7.59" xlink:href="#radial-gradient"/>
    <radialGradient id="radial-gradient-11" cx="240.76" cy="150.34" fx="240.76" fy="150.34" r="7.86" xlink:href="#radial-gradient"/>
    <radialGradient id="radial-gradient-12" cx="247.69" cy="173.04" fx="247.69" fy="173.04" r="7.67" xlink:href="#radial-gradient"/>
    <radialGradient id="radial-gradient-13" cx="235.93" cy="167.99" fx="235.93" fy="167.99" r="8.06" xlink:href="#radial-gradient"/>
    <radialGradient id="radial-gradient-14" cx="235.43" cy="85.27" fx="235.43" fy="85.27" r="7.83" xlink:href="#radial-gradient"/>
    <radialGradient id="radial-gradient-15" cx="31.24" cy="137.98" fx="31.24" fy="137.98" r="33.29" xlink:href="#radial-gradient"/>
    <radialGradient id="radial-gradient-16" cx="26.7" cy="94.36" fx="26.7" fy="94.36" r="8.05" xlink:href="#radial-gradient"/>
    <radialGradient id="radial-gradient-17" cx="37.65" cy="98.73" fx="37.65" fy="98.73" r="7.65" xlink:href="#radial-gradient"/>
    <radialGradient id="radial-gradient-18" cx="21.22" cy="112.13" fx="21.22" fy="112.13" r="7.88" xlink:href="#radial-gradient"/>
    <radialGradient id="radial-gradient-19" cx="32.98" cy="115.05" fx="32.98" fy="115.05" r="7.59" xlink:href="#radial-gradient"/>
    <radialGradient id="radial-gradient-20" cx="18.82" cy="132.88" fx="18.82" fy="132.88" r="7.68" xlink:href="#radial-gradient"/>
    <radialGradient id="radial-gradient-21" cx="31.42" cy="133.2" fx="31.42" fy="133.2" r="7.64" xlink:href="#radial-gradient"/>
    <radialGradient id="radial-gradient-22" cx="20.08" cy="152.57" fx="20.08" fy="152.57" r="7.59" xlink:href="#radial-gradient"/>
    <radialGradient id="radial-gradient-23" cx="32.76" cy="150.34" fx="32.76" fy="150.34" r="7.86" xlink:href="#radial-gradient"/>
    <radialGradient id="radial-gradient-24" cx="25.83" cy="173.04" fx="25.83" fy="173.04" r="7.67" xlink:href="#radial-gradient"/>
    <radialGradient id="radial-gradient-25" cx="37.59" cy="167.99" fx="37.59" fy="167.99" r="8.06" xlink:href="#radial-gradient"/>
    <radialGradient id="radial-gradient-26" cx="38.08" cy="85.27" fx="38.08" fy="85.27" r="7.83" xlink:href="#radial-gradient"/>
    <radialGradient id="radial-gradient-27" cx="61.34" cy="219.55" fx="61.34" fy="219.55" r="7.88" xlink:href="#radial-gradient"/>
    <radialGradient id="radial-gradient-28" cx="209.86" cy="219.55" fx="209.86" fy="219.55" r="8.23" xlink:href="#radial-gradient"/>
    <radialGradient id="radial-gradient-29" cx="909.44" cy="753.67" fx="909.44" fy="753.67" r="785.89" xlink:href="#radial-gradient"/>
  </defs>
  <circle class="cls-25" cx="135.98" cy="135.98" r="135.98"/>
  <circle class="cls-16" cx="135.98" cy="135.98" r="88.4"/>
  <g>
    <path class="cls-25" d="m99.5,126.79c2.69-.66,5.33-1.55,7.88-2.61,0,0,10.68-13.61-4.46-10.68,0,0,.22-4.68,6-5.78,0,0-6.95-.88-15.07,5.12-4.86,3.59-12.38,4.45-17.83,1.77-5.31-2.61-6.4-8.18-5.84-13.55.32-3.15,1.39-13.6-4.18-13.19,2.11,1.8,1.72,4.55,1.59,7.06-.21,4.42-2.36,8.43-3.32,12.69-.81,3.56-.35,7.56,1.65,10.66,1.94,3,5.12,4.98,8.28,6.51,7.84,3.8,16.95,4.04,25.31,2Z"/>
    <path class="cls-25" d="m170.11,118.28s17.17-1.18,19.71-18.15c0,0-6.85-3.39-15.64.85.73-.36,1.41-.73,2.05-1.24,1.41-1.11,2.5-2.6,3.04-4.31.86-2.72.3-5.66-.73-8.25-1.89-4.74-5.03-8.85-8.55-12.49-3.38-3.48-7.9-6.35-10.54-10.46-.36-.54-.67-1.12-.92-1.72-.64-1.48-.87-3.11-.77-4.72.08-1.39.26-2.77.93-4.02-1.37,1.05-2.41,2.54-3.09,4.11-1.99,4.6-.93,9.66,1.15,14.02,1.05,2.22,2.36,4.3,3.77,6.31,1.37,1.94,2.92,3.83,3.54,6.17.58,2.2.04,4.25-1.75,5.7-2.11,1.71-5.01,2.38-7.6,2.91-3.62.73-7.3,1.07-10.98,1.41-7.3.67-15.15.84-22.1,3.47-1.02.39-2.02.84-2.95,1.42-.65.4-1.43,1.43-2.08,1.77,1.68-.6,19.03-6.64,27.47-2.19,0,0-10.73.44-17.07,18.46,0,0-1.95-2.31-1.07-7.78,0,0-3.7,5.02-3.9,17.7-.2,12.68-5.56,14.25-5.56,14.25,0,0-4.17-5.46-10.68-1.22.23-.15,1.51.5,1.72.59,1.25.52,2.44,1.22,3.45,2.12,3.39,3.05,3.42,8.81.14,11.98-.87.84-1.96,1.41-3.15,1.63-.33.06-3.13.32-2.48-.54.37-.49,1.13-.52,1.66-.73,1.33-.52,2.61-1.49,3.25-2.79.81-1.66.58-3.6-.26-5.2-.54-1.03-1.36-1.87-2.32-2.53-.62-.43-1.34-.71-1.99-1.11-.62-.38-.96-.86-1.37-1.45-.08-.1-.16-.21-.27-.29-.58-.4-1.26.62-1.68.92-.81.57-1.86.81-2.84.69-.43-.06-.89-.15-1.27-.38-.4-.24-.73-.6-1.16-.81-1.25-.6-2.33.69-2.93,1.62-.89,1.39-1.18,3.11-1.6,4.68-.22.79-.62-.19-.71-.51-.57-2.08.82-4.6,1.9-6.28.84-1.33,1.93-2.47,3.09-3.53.58-.54,1.19-1.06,1.8-1.58.24-.21.49-.4.73-.6.32-.26,1.31-.73.62-1.08-1.7-.85-3.68.02-5.21.83-4.26,2.23-6.36,6.89-6.74,11.5-.23,2.83-.05,5.66.48,8.44.47,2.43,1.3,4.85,2.87,6.79.28.35.58.68.91.99,1.34,1.28,2.99,2.15,4.75,2.72,2.28.75,4.5,1.65,6.84,2.22,2.93.71,6.01.5,8.92,1.33,2.14.61,4.09,2.13,4.96,4.21,1.1,2.63.06,5.41-1.06,7.84-.24.51-1.05,1.94-.74,2.49.47.85,2.93-1.44,3.35-1.75,6.6-4.95,14.77-5.84,22.26-8.72,5.56-2.14,11.07-4.93,15.52-8.94,4.81-4.33,7.86-10.24,6.59-16.82-.01-.07-.15-.49-.11-.53,0,0-16.77,19.32-32.09-1.75,0,0,30.53,4.3,28.78-19.32,0,0,18.15,8.63,22.83,27.22,0,0,1.9-3.96-.14-9.51.44.45,14.51,14.96,16.53,36.58,0,0,13.66-29.71-29.46-62.68Zm-28.56-7.64s4.53-.96,5.96,1.64c1.42,2.6-.88,3.44-.88,3.44-.48-1.46-1.79-3.47-4.72-2.67-2.93.81-2.67,3.7-2.67,3.7-1.42-.24-1.03-1.71-1-1.86-2.58,4.35-5.89,5.65-6.1,5.73.13-.09,2.39-1.82,6.58-8.74,4.32-7.13,10.94-2.67,10.94-2.67-5.78-.32-8.12,1.43-8.12,1.43Z"/>
  </g>
  <path class="cls-21" d="m204.86,55.77s-7.15,1.16-21.32-11.75c-14.17-12.91-15.56-14.3-15.56-14.3,0,0-1.44-1.46-1.12.34.32,1.82,1.44,4.53.58,3.99-.87-.56-3.34-2.85-3.32-.58.04,2.27-.16,5.9,3.75,10.02,3.92,4.12-6.72-3.2-9.28-7.44-2.56-4.22-8.43-9.55-9.51-7.33-1.06,2.22-1.37,3.95-3.3-.14-1.91-4.12-6.07-11.99-8.52-8.38s-2.15,8.18-2.87,11.44c-.74,3.27-.81,7.94-1.93,4.26-1.12-3.68-2.31-3.99-1.88-6.64.42-2.65,0-3.68-2.62-1.88-2.6,1.81-3.34,3-3,.45.34-2.53.07-3.68-3.14-.61-3.23,3.07-9.77,8.88-9.77,8.88,0,0-2.15,2.67.4,6.1,2.53,3.41-1.5-.51-3.47-.65-1.95-.16-2.53-.74-2.26,1.19.14,1.12-1.71.04-2.83-.34,0,0-.09-.04-.25-.07-1.1-.36-5.6-1.64-8.59-.96-.05.02-.11.02-.14.04-2.65.56-6.81,4.78-10.76,7.06-5.23,3-17.87,8.9-16.99,7.29,0,0,21.32-11.64,28.47-21.43,0,0,5.42.34,8.75.58,0,0,16.59-14.87,19.24-16.82,2.65-1.97,8.86-6.91,10.49-7.96,1.61-1.03,2.29-2.65,4.13-.79,1.86,1.84,17.29,17.04,18.79,17.85,1.5.81,5.65-2.18,5.65-2.18,0,0,2.87-2.55,4.71-.7,1.84,1.84,25.47,27.08,37.46,31.46Z"/>
  <g>
    <path class="cls-22" d="m238.85,91.48c2.03,3.47,3.65,7.18,5.01,10.97,1.37,3.79,2.48,7.67,3.37,11.61,1.78,7.87,2.56,15.97,2.39,24.05-.21,8.08-1.34,16.16-3.5,23.97-2.18,7.81-5.33,15.34-9.34,22.4l-1.89-1.09c4-6.86,7.15-14.21,9.4-21.83,2.26-7.62,3.53-15.54,3.88-23.5.31-7.96-.3-15.97-1.92-23.8-.8-3.91-1.83-7.78-3.12-11.56-1.29-3.79-2.77-7.5-4.28-11.23Z"/>
    <path class="cls-9" d="m244.86,104.93c3.85-1.48,9.76-10.74,3.34-21.13-7.16,5.1-6.52,16.2-3.34,21.13Z"/>
    <path class="cls-8" d="m244.06,105.47c-3.88,1.41-14.41-1.69-16.39-13.74,8.75-.85,15.56,7.94,16.39,13.74Z"/>
    <path class="cls-13" d="m248.63,122.25c4.05-.8,11.46-8.91,6.92-20.24-7.93,3.8-9.2,14.85-6.92,20.24Z"/>
    <path class="cls-1" d="m247.84,122.81c-4.02.92-14.1-3.44-14.6-15.63,8.79.22,14.47,9.78,14.6,15.63Z"/>
    <path class="cls-7" d="m249.41,142.21c4.12-.06,12.87-6.71,10.43-18.67-8.48,2.32-11.71,12.96-10.43,18.67Z"/>
    <path class="cls-31" d="m247.77,142.3c-4.12.12-13.15-6.13-11.26-18.19,8.57,1.93,12.28,12.42,11.26,18.19Z"/>
    <path class="cls-2" d="m246.37,160.56c4.05.8,13.99-3.86,14.12-16.07-8.78.49-14.17,10.21-14.12,16.07Z"/>
    <path class="cls-29" d="m244.64,160.38c-4.06-.71-11.66-8.64-7.38-20.07,8.01,3.61,9.54,14.63,7.38,20.07Z"/>
    <path class="cls-15" d="m239.3,179.53c3.84,1.52,14.46-1.28,16.78-13.26-8.72-1.1-15.78,7.49-16.78,13.26Z"/>
    <path class="cls-18" d="m237.59,178.6c-3.8-1.59-9.45-11.01-2.74-21.21,7.01,5.3,6.05,16.38,2.74,21.21Z"/>
    <path class="cls-24" d="m240.27,94.71c2.18-3.5,1.32-14.45-10.06-18.87-2.64,8.38,4.56,16.86,10.06,18.87Z"/>
  </g>
  <g>
    <path class="cls-20" d="m34.67,91.48c-2.03,3.47-3.65,7.18-5.01,10.97-1.37,3.79-2.48,7.67-3.37,11.61-1.78,7.87-2.56,15.97-2.39,24.05.21,8.08,1.34,16.16,3.5,23.97,2.18,7.81,5.33,15.34,9.34,22.4l1.89-1.09c-4-6.86-7.15-14.21-9.4-21.83-2.26-7.62-3.53-15.54-3.88-23.5-.31-7.96.3-15.97,1.92-23.8.8-3.91,1.83-7.78,3.12-11.56,1.29-3.79,2.77-7.5,4.28-11.23Z"/>
    <path class="cls-4" d="m28.66,104.93c-3.85-1.48-9.76-10.74-3.34-21.13,7.16,5.1,6.52,16.2,3.34,21.13Z"/>
    <path class="cls-23" d="m29.46,105.47c3.88,1.41,14.41-1.69,16.39-13.74-8.75-.85-15.56,7.94-16.39,13.74Z"/>
    <path class="cls-30" d="m24.88,122.25c-4.05-.8-11.46-8.91-6.92-20.24,7.93,3.8,9.2,14.85,6.92,20.24Z"/>
    <path class="cls-14" d="m25.68,122.81c4.02.92,14.1-3.44,14.6-15.63-8.79.22-14.47,9.78-14.6,15.63Z"/>
    <path class="cls-5" d="m24.11,142.21c-4.12-.06-12.87-6.71-10.43-18.67,8.48,2.32,11.71,12.96,10.43,18.67Z"/>
    <path class="cls-6" d="m25.74,142.3c4.12.12,13.15-6.13,11.26-18.19-8.57,1.93-12.28,12.42-11.26,18.19Z"/>
    <path class="cls-12" d="m27.14,160.56c-4.05.8-13.99-3.86-14.12-16.07,8.78.49,14.17,10.21,14.12,16.07Z"/>
    <path class="cls-28" d="m28.88,160.38c4.06-.71,11.66-8.64,7.38-20.07-8.01,3.61-9.54,14.63-7.38,20.07Z"/>
    <path class="cls-19" d="m34.22,179.53c-3.84,1.52-14.46-1.28-16.78-13.26,8.72-1.1,15.78,7.49,16.78,13.26Z"/>
    <path class="cls-10" d="m35.93,178.6c3.8-1.59,9.45-11.01,2.74-21.21-7.01,5.3-6.05,16.38-2.74,21.21Z"/>
    <path class="cls-11" d="m33.25,94.71c-2.18-3.5-1.32-14.45,10.06-18.87,2.64,8.38-4.56,16.86-10.06,18.87Z"/>
  </g>
  <path class="cls-17" d="m61.34,225.17c5.31,0,9.62-4.3,9.62-9.61-.84,2.13-2.37,3.92-4.32,5.08l-.82-.62,1.62-1.22-1.96-.5h0s1.03-1.74,1.03-1.74l-2,.29.29-2.01-1.74,1.04h0l-.5-1.96-1.22,1.63-1.21-1.63-.5,1.96h0l-1.74-1.04.29,2.01-2-.29,1.03,1.74h0s-1.96.5-1.96.5l1.62,1.22-.83.62c-1.94-1.17-3.48-2.95-4.32-5.08,0,5.31,4.31,9.61,9.62,9.61"/>
  <polygon class="cls-3" points="214.9 220.9 214.9 220.9 218.08 219.55 214.9 218.2 214.9 218.2 216.99 215.44 213.55 215.86 213.97 212.43 211.21 214.51 211.21 214.51 209.86 211.32 208.51 214.51 208.51 214.51 205.74 212.43 206.17 215.86 202.73 215.44 204.82 218.2 204.82 218.2 201.63 219.55 204.82 220.9 204.82 220.9 202.73 223.67 206.17 223.24 206.17 223.24 206.17 223.24 205.74 226.68 208.51 224.6 208.51 224.6 209.86 227.78 211.21 224.6 211.21 224.6 213.97 226.68 213.55 223.24 216.99 223.67 214.9 220.9"/>
  <g>
    <path class="cls-26" d="m175.61,277.19c-.16-.12-.59-.5-1.37-1.36-1.21-1.35-2.28-2.67-3.17-3.92l-1.51-2.12c.68-.63,1.44-1.28,2.27-1.95,1.62-1.3,2.34-1.55,2.37-1.56,3.51-.94,5.77-4.33,5.3-7.93-.47-3.6-3.56-6.29-7.19-6.29h-7.2c-1.26,0-2.46.32-3.51.91-1.05-.58-2.25-.91-3.51-.91h-4.5c.1-1.52-.27-3.05-1.1-4.36-.12-.41-.44-1.83-.48-5.24v-.82c.55-.15,1.1-.35,1.62-.61.37-.19.74-.4,1.1-.64.25-.17.53-.37.82-.61.6-.47,1.17-1.01,1.7-1.6.51-.58.96-1.2,1.37-1.85.12-.19.24-.37.33-.53.26-.44.48-.88.66-1.33,0-.02.02-.04.02-.06.14-.35.26-.72.37-1.09,0-.03.01-.05.02-.08.09-.35.17-.72.23-1.11.12-.72.17-1.47.14-2.23-.04-.85-.16-1.65-.37-2.42,0-.03-.02-.06-.03-.09l-.02-.08c-.08-.34-.17-.65-.27-.97.98.3,1.9.4,2.7.4h7.2c3.4,0,6.34-2.37,7.07-5.69.71-3.22-.85-6.5-3.77-8-.16-.12-.59-.5-1.37-1.36-1.21-1.35-2.28-2.67-3.17-3.92l-1.51-2.12c.68-.63,1.44-1.28,2.27-1.95,1.62-1.3,2.34-1.55,2.37-1.56,3.51-.94,5.77-4.33,5.3-7.93-.47-3.6-3.56-6.29-7.19-6.29h-7.2c-1.26,0-2.46.32-3.51.91-1.05-.58-2.25-.91-3.51-.91h-8.87c-2.75,0-5.19,1.56-6.41,3.93-1.23-2.39-3.69-3.93-6.41-3.93h-6.61c-.54,0-1.06.08-1.57.19-.51-.11-1.03-.19-1.56-.19h-4.97c-1.31,0-2.57.35-3.67,1-1.1-.65-2.36-1-3.67-1h-9.28c-3.29,0-6.16,2.22-7,5.4-.75,2.86.31,5.85,2.61,7.6.25.39.76,1.27,1.62,3.01l3.48,7.14c-.07,2.92-.36,4.18-.47,4.57-1.36,2.14-1.5,4.86-.34,7.14,1.23,2.43,3.73,3.97,6.46,3.97h5.33c-.05.1-.12.2-.17.31-.27.54-.48,1.1-.64,1.69-.1.37-.19.79-.26,1.22-.12.74-.16,1.49-.13,2.24.03.72.14,1.49.33,2.24.03.13.07.26.11.39.07.31.16.63.27.95,0,.02.02.05.02.07.21.63.49,1.24.83,1.79.34.58.81,1.17,1.35,1.71.85.85,1.83,1.52,2.93,2,.42.19.87.33,1.32.45v.68c-.04,3.41-.36,4.83-.48,5.24-.83,1.32-1.2,2.85-1.1,4.36h-2.97c-1.83,0-3.53.69-4.83,1.85-.31-.25-.64-.47-.98-.68-1.33-.78-2.85-1.17-4.62-1.17h-5.39c-3.29,0-6.17,2.22-7,5.41-.59,2.25-.05,4.59,1.33,6.33,0,.04,0,.07,0,.09,0,.17.03.59.03,1.42v9.21c-.04,3.41-.36,4.83-.48,5.24-1.36,2.14-1.5,4.86-.34,7.14,1.23,2.43,3.73,3.97,6.46,3.97h4.94c1.7,0,3.31-.6,4.58-1.63,1.43,1.05,3.18,1.63,5.08,1.63h6.12c.25,0,.5-.03.74-.05.21.02.43.05.65.05h6.26c2.57,0,4.92-1.36,6.22-3.53.67.89,1.48,1.65,2.41,2.22,1.39.87,3.03,1.31,4.87,1.31h6.68c.16,0,.31-.03.46-.04.19.02.38.04.58.04h8.87c1.16,0,2.28-.28,3.28-.78,1.38.6,2.67.78,3.75.78h7.2c3.4,0,6.34-2.37,7.07-5.69.71-3.22-.85-6.5-3.77-8Z"/>
    <g>
      <path class="cls-27" d="m102.36,195.16h9.28c-.16.53-.23,1.13-.21,1.79s.25,1.6.68,2.83c.43,1.23,1.08,2.77,1.96,4.62l1.22,2.47,1.22-2.47c.9-1.85,1.57-3.4,2-4.62.43-1.23.65-2.17.68-2.83.02-.66-.05-1.26-.21-1.79h4.97c-.53.3-1.08.88-1.65,1.74s-1.26,2.13-2.07,3.82l-4.24,8.69v1.01c.05,4.66.58,7.68,1.6,9.07h-8.87c1.02-1.39,1.55-4.42,1.6-9.07v-1.01l-4.24-8.69c-.83-1.69-1.53-2.97-2.09-3.82s-1.1-1.44-1.63-1.74Z"/>
      <path class="cls-27" d="m127.08,195.16h6.61l6.47,15.78c2.2,5.12,3.98,7.97,5.32,8.55h-6.68c-.46,0-.82-.08-1.06-.23-.24-.15-.45-.39-.61-.71l-2.85-7.02h-8.97l-.17.45c-.44,1.14-.65,2.54-.63,4.22.02,1.68.29,2.78.8,3.29h-6.26c.46-.32.9-.77,1.32-1.34.42-.57.82-1.26,1.22-2.09.39-.82.69-1.48.89-1.98s.47-1.16.82-2l4.42-11.58c.51-1.39.72-2.45.63-3.16-.09-.72-.51-1.45-1.25-2.19Zm2.57,5.04l-3.69,9.63h7.61l-3.93-9.63Z"/>
      <path class="cls-27" d="m146.51,195.16h8.87c-.37.21-.68.53-.92.96-.24.43-.41.97-.49,1.62s-.13,1.19-.16,1.63-.03,1.04-.03,1.81v5.7l3.93-4.38s.07-.1.14-.17c.72-.81,1.3-1.47,1.74-1.98.44-.51.97-1.17,1.6-1.98.63-.81,1.04-1.49,1.25-2.03s.2-.93-.04-1.17h7.2c-1.39.37-3.06,1.34-5.01,2.9-1.95,1.56-3.57,3.07-4.87,4.5l-2.19,2.47,4.94,6.95c1.04,1.46,2.27,2.97,3.67,4.54,1.4,1.56,2.56,2.56,3.46,2.97h-7.2c-1.09,0-2.22-.88-3.41-2.64l-5.21-7.47v4.1c0,2.55.53,4.55,1.6,6.01h-8.87c1.02-1.39,1.55-4.42,1.6-9.07v-9.25c0-.76-.01-1.37-.04-1.81s-.08-.98-.16-1.63-.24-1.19-.49-1.62c-.24-.43-.55-.75-.92-.96Z"/>
      <path class="cls-27" d="m122.65,230.55c.16,0,.3,0,.42.02.12.01.24.04.34.08.1.05.2.1.31.17.1.07.2.15.29.24.2.2.36.44.48.71.11.27.17.57.17.88,0,.29-.06.58-.17.85-.11.27-.27.51-.48.71s-.44.36-.71.47c-.27.11-.55.17-.85.17-.32,0-.61-.06-.87-.17-.26-.11-.49-.27-.7-.47-.11-.11-.2-.23-.27-.34-.07-.11-.12-.24-.17-.37-.04-.14-.08-.28-.12-.43-.03-.15-.07-.29-.12-.42-.07-.27-.11-.54-.12-.8-.01-.26,0-.53.05-.8.02-.16.05-.3.08-.42.03-.12.08-.24.14-.36s.12-.23.19-.34.14-.24.2-.37c.2-.34.44-.65.7-.93.26-.28.51-.53.76-.73.14-.11.25-.2.36-.27.1-.07.2-.12.29-.17.09-.04.18-.08.27-.1s.19-.05.31-.07l.41.58c-.09.07-.17.12-.24.17-.07.05-.14.1-.2.15-.07.06-.13.12-.19.19s-.13.15-.22.24c-.18.16-.35.33-.49.51-.15.18-.28.36-.39.54-.14.23-.25.45-.34.66-.09.22-.14.41-.14.59-.02.07.01.09.1.05.09-.03.19-.08.31-.14.11-.06.23-.12.36-.19.12-.07.21-.1.25-.1Z"/>
      <path class="cls-27" d="m125.65,227.23h5.39c.44,0,.76.06.96.17.2.12.41.35.64.7l10.43,18.32v-13.18c0-.76-.01-1.37-.04-1.81s-.08-.98-.17-1.63c-.09-.65-.26-1.19-.49-1.62-.23-.43-.53-.75-.9-.96h4.9c-.37.21-.67.53-.9.96-.23.43-.39.97-.49,1.62-.09.65-.15,1.19-.17,1.63s-.03,1.04-.03,1.81v9.25c.05,4.66.58,7.68,1.6,9.07h-6.12c-.53,0-.92-.22-1.15-.66l-10.15-17.83v9.42c.05,4.64.59,7.66,1.63,9.07h-4.94c1.02-1.39,1.55-4.42,1.6-9.07v-9.25c0-.76-.01-1.37-.04-1.81s-.08-.98-.16-1.63-.24-1.19-.49-1.62c-.24-.43-.55-.75-.92-.96Z"/>
      <path class="cls-27" d="m150.6,231.47c-.16,0-.3,0-.42-.02-.12-.01-.24-.04-.34-.08-.1-.04-.2-.1-.29-.17-.09-.07-.19-.15-.31-.24-.2-.2-.36-.44-.47-.71-.11-.27-.17-.55-.17-.85,0-.32.06-.61.17-.88.11-.27.27-.51.47-.71s.44-.36.71-.47c.27-.11.55-.17.85-.17.32,0,.61.06.88.17.27.11.51.27.71.47.09.11.17.23.24.34.07.11.12.24.17.37.05.14.08.28.12.43s.07.3.12.46c.07.25.11.51.12.78.01.27,0,.53-.05.78-.02.16-.05.3-.08.43-.03.12-.07.24-.12.36-.05.11-.1.23-.17.34-.07.11-.15.24-.24.37-.2.34-.43.65-.68.93-.25.28-.51.53-.78.73-.14.11-.25.2-.36.27-.1.07-.2.12-.29.17-.09.05-.18.08-.27.1-.09.02-.19.05-.31.07l-.41-.58c.11-.04.2-.1.27-.15s.13-.11.19-.17l.19-.19.24-.24c.16-.16.31-.33.46-.51s.28-.36.39-.54c.14-.23.25-.45.34-.66.09-.21.15-.41.17-.59,0-.07-.04-.08-.14-.05-.09.03-.19.08-.31.15-.11.07-.23.13-.34.19-.11.06-.2.08-.27.08Z"/>
      <path class="cls-27" d="m99.65,259.3h5.39c.44,0,.76.06.96.17.2.12.41.35.64.7l10.43,18.32v-13.18c0-.76-.01-1.37-.04-1.81s-.08-.98-.17-1.63c-.09-.65-.26-1.19-.49-1.62-.23-.43-.53-.75-.9-.96h4.9c-.37.21-.67.53-.9.96-.23.43-.39.97-.49,1.62-.09.65-.15,1.19-.17,1.63s-.03,1.04-.03,1.81v9.25c.05,4.66.58,7.68,1.6,9.07h-6.12c-.53,0-.92-.22-1.15-.66l-10.15-17.83v9.42c.05,4.64.59,7.66,1.63,9.07h-4.94c1.02-1.39,1.55-4.42,1.6-9.07v-9.25c0-.76-.01-1.37-.04-1.81s-.08-.98-.16-1.63-.24-1.19-.49-1.62c-.24-.43-.55-.75-.92-.96Z"/>
      <path class="cls-27" d="m129.79,259.3h6.61l6.47,15.78c2.2,5.12,3.98,7.97,5.32,8.55h-6.68c-.46,0-.82-.08-1.06-.23-.24-.15-.45-.39-.61-.71l-2.85-7.02h-8.97l-.17.45c-.44,1.14-.65,2.54-.63,4.22.02,1.68.29,2.78.8,3.29h-6.26c.46-.32.9-.77,1.32-1.34.42-.57.82-1.26,1.22-2.09.39-.82.69-1.48.89-1.98s.47-1.16.82-2l4.42-11.58c.51-1.39.72-2.45.63-3.16-.09-.72-.51-1.45-1.25-2.19Zm2.57,5.04l-3.69,9.63h7.61l-3.93-9.63Z"/>
      <path class="cls-27" d="m149.22,259.3h8.87c-.37.21-.68.53-.92.96-.24.43-.41.97-.49,1.62s-.13,1.19-.16,1.63-.03,1.04-.03,1.81v5.7l3.93-4.38s.07-.1.14-.17c.72-.81,1.3-1.47,1.74-1.98.44-.51.97-1.17,1.6-1.98.63-.81,1.04-1.49,1.25-2.03s.2-.93-.04-1.17h7.2c-1.39.37-3.06,1.34-5.01,2.9-1.95,1.56-3.57,3.07-4.87,4.5l-2.19,2.47,4.94,6.95c1.04,1.46,2.27,2.97,3.67,4.54,1.4,1.56,2.56,2.56,3.46,2.97h-7.2c-1.09,0-2.22-.88-3.41-2.64l-5.21-7.47v4.1c0,2.55.53,4.55,1.6,6.01h-8.87c1.02-1.39,1.55-4.42,1.6-9.07v-9.25c0-.76-.01-1.37-.04-1.81s-.08-.98-.16-1.63-.24-1.19-.49-1.62c-.24-.43-.55-.75-.92-.96Z"/>
    </g>
  </g>
</svg>