<?xml version="1.0" encoding="utf-8"?>
<!-- Generator: Adobe Illustrator 27.1.1, SVG Export Plug-In . SVG Version: 6.00 Build 0)  -->
<svg version="1.1" id="Layer_1" xmlns="http://www.w3.org/2000/svg" xmlns:xlink="http://www.w3.org/1999/xlink" x="0px" y="0px"
	 viewBox="0 0 1080 1080" style="enable-background:new 0 0 1080 1080;" xml:space="preserve">
<style type="text/css">
	.st0{fill:#1D1D1B;}
</style>
<g>
	<g>
		<path d="M365.7,562.22h206.72c0,0,11-2.32,11.73,11.97c0.73,14.29,0,29.69,12.1,17.59l75.87-64.51l-82.83-72.57v28.63
			c0,6.11-4.88,11.09-10.98,11.21c-41.07,0.83-184.52,2.64-209.18-11.98h206.6v-39.1c0,0,2.57-15.64,20.16-4.4
			c17.59,11.24,95.79,82.1,95.79,82.1s21.01,16.13-14.17,37.14l-85.89,66.55c0,0-19.18,7.24-21.14-10.84l0-29.69
			c-40.29,0-148.26,2.03-161.83,0.97C391.85,583.99,372.81,579.34,365.7,562.22z"/>
	</g>
	<g>
		<path d="M433.14,520.82c-1.23,0-2.46-0.45-3.42-1.34c-2.1-1.95-1.99-5.38,0.04-7.4l25.58-25.58c1.86-1.86,4.87-2.15,6.89-0.48
			c2.32,1.92,2.44,5.36,0.36,7.44l-25.9,25.9C435.72,520.33,434.43,520.82,433.14,520.82z"/>
	</g>
	<g>
		<path d="M425.33,552.1c-1.44,0-2.87-0.61-3.86-1.8c-1.78-2.13-1.49-5.3,0.64-7.08l50.34-42.03c2.13-1.77,5.3-1.49,7.08,0.64
			c1.78,2.13,1.49,5.3-0.64,7.08l-50.34,42.03C427.6,551.71,426.46,552.1,425.33,552.1z"/>
	</g>
	<g>
		<path d="M442.92,557.47c-1.43,0-2.84-0.6-3.84-1.78c-1.79-2.12-1.53-5.29,0.59-7.08l20.77-17.59c2.11-1.8,5.29-1.53,7.08,0.59
			c1.79,2.12,1.53,5.29-0.59,7.08l-20.77,17.59C445.22,557.08,444.07,557.47,442.92,557.47z"/>
	</g>
	<g>
		<path d="M476.22,534.68c-1.41,0-2.81-0.59-3.8-1.74c-1.81-2.1-1.58-5.27,0.52-7.09l23.27-20.09c2.1-1.82,5.27-1.58,7.09,0.52
			c1.81,2.1,1.58,5.27-0.52,7.09l-23.27,20.09C478.55,534.28,477.39,534.68,476.22,534.68z"/>
	</g>
	<g>
		<path d="M468.33,567.25c-1.38,0-2.74-0.56-3.73-1.66c-1.86-2.06-1.69-5.24,0.37-7.09l63.47-57.18c2.06-1.87,5.24-1.69,7.09,0.37
			c1.86,2.06,1.69,5.24-0.37,7.09l-63.47,57.18C470.73,566.82,469.53,567.25,468.33,567.25z"/>
	</g>
	<g>
		<path d="M502.54,569.69c-1.25,0-2.5-0.46-3.48-1.4c-2-1.92-2.07-5.1-0.15-7.1l57.18-59.62c1.92-2,5.1-2.07,7.1-0.15
			c2,1.92,2.07,5.1,0.15,7.1l-57.18,59.62C505.18,569.17,503.86,569.69,502.54,569.69z"/>
	</g>
	<g>
		<path d="M535.28,569.69c-1.14,0-2.28-0.38-3.22-1.17c-2.13-1.78-2.41-4.95-0.63-7.08l49.85-59.62c1.78-2.13,4.95-2.41,7.08-0.63
			c2.13,1.78,2.41,4.95,0.63,7.08l-49.84,59.62C538.14,569.08,536.72,569.69,535.28,569.69z"/>
	</g>
	<g>
		<path d="M562.16,569.69c-1.09,0-2.18-0.35-3.09-1.07c-2.19-1.71-2.57-4.87-0.86-7.05l48.38-61.82c1.72-2.19,4.87-2.57,7.05-0.86
			c2.19,1.71,2.57,4.87,0.86,7.05l-48.39,61.82C565.13,569.03,563.65,569.69,562.16,569.69z"/>
	</g>
	<g>
		<path d="M591.97,559.43c-1.17,0-2.34-0.4-3.29-1.23c-2.1-1.82-2.33-4.99-0.51-7.09l50.34-58.15c1.82-2.1,4.99-2.32,7.08-0.51
			c2.1,1.82,2.33,4.99,0.51,7.09l-50.34,58.15C594.77,558.84,593.38,559.43,591.97,559.43z"/>
	</g>
	<g>
		<path d="M619.34,559.43c-1.18,0-2.36-0.41-3.31-1.24c-2.09-1.83-2.3-5-0.47-7.09l41.05-46.91c1.83-2.09,5.01-2.29,7.09-0.47
			c2.09,1.83,2.3,5,0.47,7.09l-41.05,46.91C622.13,558.85,620.74,559.43,619.34,559.43z"/>
	</g>
	<g>
		<path d="M633.02,568.97c-0.95,0-1.9-0.31-2.69-0.94c-1.86-1.49-2.16-4.19-0.67-6.05l39.1-48.87c1.5-1.86,4.21-2.15,6.06-0.67
			c1.86,1.49,2.16,4.19,0.67,6.05l-39.1,48.87C635.54,568.42,634.28,568.97,633.02,568.97z"/>
	</g>
</g>
</svg>
