<?xml version="1.0" encoding="utf-8"?>
<!-- Generator: Adobe Illustrator 24.1.2, SVG Export Plug-In . SVG Version: 6.00 Build 0)  -->
<svg version="1.1" id="Layer_1" xmlns="http://www.w3.org/2000/svg" xmlns:xlink="http://www.w3.org/1999/xlink" x="0px" y="0px"
	 viewBox="0 0 1080 1080" style="enable-background:new 0 0 1080 1080;" xml:space="preserve">
<style type="text/css">
	.st0{fill:#FFFFFF;}
	.st1{fill:#1D1D1B;}
</style>
<g>
	<g>
		<path class="st1" d="M753.08,556.8c-0.74,7.82-9.44,13.37-16.99,16.96c-26.02,12.38-52.04,24.76-78.07,37.14
			c-5.65,2.69-12.32,5.38-17.89,2.54c-6.55-3.34-7.57-12.45-5.64-19.54c1.93-7.09,5.91-13.7,6.32-21.03
			c-82.57-20.24-170.09-19.99-252.55,0.74c39.49-22.03,85.23-31.07,130.43-31.98c43.75-0.88,87.3,5.54,130.37,13.36
			c2.71,0.49,5.02,3.15,4.94,5.91c-0.31,10.45-2.67,21.07-5.9,31.85c-1.22,4.05,2.82,7.68,6.71,6.01
			c26.51-11.4,53.02-22.8,79.53-34.2c4.57-1.97,9.97-5.27,9.37-10.21c-0.22-1.79-1.25-3.37-2.25-4.87
			c-16.07-24.1-32.15-48.2-48.22-72.3c-1.17-1.76-2.49-3.63-4.51-4.28c-3.53-1.13-7.04,2.19-8.24,5.69s-1.09,7.38-2.51,10.8
			c-2.41,5.8-8.86,9.09-15.13,9.61c-6.26,0.52-12.47-1.2-18.55-2.8c-53.14-13.96-108.78-19.28-163.37-13.05
			s-108.1,24.17-154.05,54.29c6.09-3.69,12.18-7.37,18.27-11.06c3.04-1.84,6.09-3.69,9.13-5.53c1.52-0.92,3.05-1.83,4.57-2.76
			c1.08-0.67,1.88-1.55,3.03-2.1c11.48-5.57,23.34-10.43,35.33-14.79c12-4.36,24.21-8.15,36.57-11.36
			c12.36-3.21,24.87-5.84,37.48-7.88c12.61-2.04,25.31-3.5,38.06-4.36c12.74-0.86,25.52-1.12,38.29-0.78
			c12.77,0.34,25.52,1.29,38.19,2.85c3.93,0.48,7.85,1.03,11.77,1.63c19.71,3.03,39.16,7.51,58.72,11.38
			c2.68,0.53,5.49,1.05,8.12,0.3c11.31-3.22,8.39-24.29,19.75-27.31c6.86-1.83,12.81,4.77,16.86,10.61
			c15.82,22.81,31.64,45.62,47.46,68.43c2.04,2.94,4.14,6.04,4.58,9.59C753.14,555.15,753.15,555.99,753.08,556.8z"/>
	</g>
	<g>
		<path class="st1" d="M409.43,550.93c-0.61,0-1.24-0.19-1.77-0.58l-30.39-21.98c-1.36-0.98-1.65-2.87-0.68-4.22
			c0.98-1.36,2.87-1.65,4.22-0.68l30.39,21.98c1.36,0.98,1.65,2.87,0.68,4.22C411.29,550.5,410.37,550.93,409.43,550.93z"/>
	</g>
	<g>
		<path class="st1" d="M439.13,557.79c-0.68,0-1.36-0.23-1.93-0.69l-47.38-39.14c-1.28-1.06-1.47-2.97-0.4-4.26
			c1.06-1.28,2.97-1.47,4.26-0.4l47.38,39.14c1.28,1.06,1.47,2.97,0.4,4.26C440.86,557.42,440,557.79,439.13,557.79z"/>
	</g>
	<g>
		<path class="st1" d="M436.73,531.01c-0.87,0-1.73-0.37-2.32-1.09l-17.17-20.6c-1.07-1.28-0.9-3.19,0.39-4.26
			c1.28-1.08,3.18-0.9,4.26,0.39l17.17,20.6c1.07,1.28,0.9,3.19-0.39,4.26C438.1,530.78,437.41,531.01,436.73,531.01z"/>
	</g>
	<g>
		<path class="st1" d="M476.21,553.67c-0.84,0-1.67-0.35-2.27-1.02l-37.08-41.89c-1.1-1.25-0.98-3.17,0.26-4.28
			c1.26-1.09,3.17-0.98,4.28,0.26l37.08,41.89c1.1,1.25,0.98,3.17-0.26,4.28C477.64,553.42,476.93,553.67,476.21,553.67z"/>
	</g>
	<g>
		<path class="st1" d="M495.78,550.93c-0.86,0-1.71-0.36-2.3-1.06l-33.31-39.15c-1.09-1.28-0.93-3.18,0.34-4.26
			c1.28-1.1,3.19-0.93,4.26,0.34l33.31,39.15c1.09,1.28,0.93,3.18-0.34,4.26C497.18,550.69,496.48,550.93,495.78,550.93z"/>
	</g>
	<g>
		<path class="st1" d="M498.35,526.21c-0.84,0-1.69-0.35-2.29-1.04l-19.23-22.14c-1.1-1.26-0.96-3.18,0.3-4.27
			c1.28-1.09,3.18-0.95,4.27,0.3l19.23,22.14c1.1,1.26,0.96,3.18-0.3,4.27C499.76,525.96,499.05,526.21,498.35,526.21z"/>
	</g>
	<g>
		<path class="st1" d="M534.92,546.81c-0.85,0-1.7-0.36-2.3-1.06l-39.14-45.83c-1.09-1.27-0.94-3.18,0.34-4.26
			c1.27-1.09,3.18-0.93,4.26,0.34l39.14,45.83c1.09,1.27,0.94,3.18-0.34,4.26C536.31,546.57,535.61,546.81,534.92,546.81z"/>
	</g>
	<g>
		<path class="st1" d="M552.95,532.73c-0.8,0-1.6-0.32-2.2-0.95l-35.02-36.91c-1.15-1.21-1.1-3.13,0.12-4.28
			c1.21-1.13,3.13-1.1,4.28,0.12l35.02,36.91c1.15,1.21,1.1,3.13-0.12,4.28C554.44,532.45,553.7,532.73,552.95,532.73z"/>
	</g>
	<g>
		<path class="st1" d="M572.52,532.73c-0.87,0-1.74-0.38-2.33-1.1l-30.39-36.91c-1.06-1.29-0.88-3.2,0.41-4.25
			c1.28-1.06,3.21-0.87,4.25,0.41l30.39,36.91c1.06,1.29,0.88,3.2-0.41,4.25C573.88,532.5,573.2,532.73,572.52,532.73z"/>
	</g>
	<g>
		<path class="st1" d="M607.28,538.23c-0.76,0-1.53-0.29-2.12-0.87l-43.26-42.41c-1.19-1.17-1.21-3.08-0.04-4.28
			c1.17-1.2,3.08-1.21,4.28-0.04l43.26,42.41c1.19,1.17,1.21,3.08,0.04,4.28C608.84,537.93,608.06,538.23,607.28,538.23z"/>
	</g>
	<g>
		<path class="st1" d="M628.65,543.03c-0.81,0-1.62-0.32-2.22-0.97l-36.05-38.96c-1.13-1.23-1.06-3.14,0.17-4.28
			c1.23-1.13,3.14-1.06,4.28,0.17l36.05,38.96c1.13,1.23,1.06,3.14-0.17,4.28C630.13,542.76,629.39,543.03,628.65,543.03z"/>
	</g>
	<g>
		<path class="st1" d="M641.36,531.01c-0.8,0-1.62-0.32-2.21-0.95L611,500.02c-1.14-1.22-1.08-3.14,0.13-4.28
			c1.21-1.15,3.14-1.07,4.28,0.13l28.15,30.04c1.14,1.22,1.08,3.14-0.13,4.28C642.84,530.74,642.1,531.01,641.36,531.01z"/>
	</g>
	<g>
		<path class="st1" d="M715.18,578.4c-0.75,0-1.49-0.28-2.07-0.83l-67.98-64.12c-1.22-1.14-1.28-3.06-0.13-4.27
			c1.14-1.23,3.07-1.27,4.27-0.13l67.98,64.12c1.22,1.14,1.28,3.06,0.13,4.27C716.79,578.08,715.98,578.4,715.18,578.4z"/>
	</g>
	<g>
		<path class="st1" d="M695.95,589.04c-0.84,0-1.67-0.35-2.27-1.02l-39.48-44.64c-1.1-1.24-0.98-3.16,0.27-4.27
			c1.25-1.09,3.16-0.98,4.27,0.27l39.48,44.64c1.1,1.24,0.98,3.16-0.27,4.27C697.38,588.79,696.67,589.04,695.95,589.04z"/>
	</g>
	<g>
		<path class="st1" d="M730.28,571.67c-0.8,0-1.61-0.32-2.2-0.95l-59.4-62.97c-1.15-1.21-1.1-3.13,0.13-4.27
			c1.21-1.13,3.13-1.1,4.27,0.13l59.4,62.97c1.15,1.21,1.1,3.13-0.13,4.27C731.77,571.39,731.03,571.67,730.28,571.67z"/>
	</g>
	<g>
		<path class="st1" d="M743.33,564.32c-0.84,0-1.68-0.35-2.28-1.03l-55.62-63.34c-1.1-1.25-0.98-3.17,0.28-4.27
			c1.26-1.1,3.17-0.98,4.27,0.28l55.62,63.34c1.1,1.25,0.98,3.17-0.28,4.27C744.75,564.07,744.04,564.32,743.33,564.32z"/>
	</g>
</g>
</svg>
