<svg width="130" height="125" viewBox="0 0 130 125" fill="none" xmlns="http://www.w3.org/2000/svg">
<ellipse cx="65" cy="62.5" rx="65" ry="62.5" fill="#262022"/>
<rect width="70" height="70" transform="translate(30 28)" fill="#262022"/>
<path opacity="0.15" d="M34.3164 94.354C34.3164 94.9342 35.776 95.4906 38.3742 95.9008C40.9724 96.311 44.4962 96.5415 48.1706 96.5415C51.8449 96.5415 55.3688 96.311 57.9669 95.9008C60.5651 95.4906 62.0247 94.9342 62.0247 94.354C62.0247 94.0667 61.6664 93.7823 60.9702 93.5169C60.2739 93.2515 59.2534 93.0103 57.9669 92.8072C56.6805 92.6041 55.1532 92.443 53.4723 92.333C51.7915 92.2231 49.9899 92.1665 48.1706 92.1665C46.3512 92.1665 44.5497 92.2231 42.8688 92.333C41.1879 92.443 39.6607 92.6041 38.3742 92.8072C37.0877 93.0103 36.0672 93.2515 35.371 93.5169C34.6748 93.7823 34.3164 94.0667 34.3164 94.354ZM71.5039 94.3832C71.5039 94.6551 71.8434 94.9244 72.503 95.1756C73.1626 95.4269 74.1294 95.6552 75.3481 95.8475C76.5669 96.0398 78.0138 96.1923 79.6062 96.2964C81.1986 96.4004 82.9053 96.454 84.6289 96.454C86.3525 96.454 88.0592 96.4004 89.6516 96.2964C91.244 96.1923 92.6909 96.0398 93.9097 95.8475C95.1285 95.6552 96.0952 95.4269 96.7548 95.1756C97.4144 94.9244 97.7539 94.6551 97.7539 94.3832C97.7539 94.1112 97.4144 93.8419 96.7548 93.5907C96.0952 93.3395 95.1285 93.1112 93.9097 92.9189C92.6909 92.7266 91.244 92.574 89.6516 92.47C88.0592 92.3659 86.3525 92.3123 84.6289 92.3123C82.9053 92.3123 81.1986 92.3659 79.6062 92.47C78.0138 92.574 76.5669 92.7266 75.3481 92.9189C74.1294 93.1112 73.1626 93.3395 72.503 93.5907C71.8434 93.8419 71.5039 94.1112 71.5039 94.3832Z" fill="#45413C"/>
<path d="M88.5667 36.6336C88.5667 37.0242 88.7219 37.3988 88.9981 37.6751C89.2744 37.9513 89.649 38.1065 90.0396 38.1065C90.4303 38.1065 90.8049 37.9513 91.0812 37.6751C91.3574 37.3988 91.5126 37.0242 91.5126 36.6336C91.5126 36.2429 91.3574 35.8683 91.0812 35.5921C90.8049 35.3158 90.4303 35.1606 90.0396 35.1606C89.649 35.1606 89.2744 35.3158 88.9981 35.5921C88.7219 35.8683 88.5667 36.2429 88.5667 36.6336ZM33.5146 45.6752C33.5146 45.8438 33.5478 46.0106 33.6123 46.1663C33.6768 46.322 33.7714 46.4635 33.8905 46.5827C34.0097 46.7018 34.1512 46.7964 34.3069 46.8609C34.4626 46.9254 34.6295 46.9586 34.798 46.9586C34.9665 46.9586 35.1334 46.9254 35.2891 46.8609C35.4448 46.7964 35.5863 46.7018 35.7054 46.5827C35.8246 46.4635 35.9191 46.322 35.9836 46.1663C36.0481 46.0106 36.0813 45.8438 36.0813 45.6752C36.0813 45.5067 36.0481 45.3398 35.9836 45.1841C35.9191 45.0284 35.8246 44.8869 35.7054 44.7678C35.5863 44.6486 35.4448 44.5541 35.2891 44.4896C35.1334 44.4251 34.9665 44.3919 34.798 44.3919C34.6295 44.3919 34.4626 44.4251 34.3069 44.4896C34.1512 44.5541 34.0097 44.6486 33.8905 44.7678C33.7714 44.8869 33.6768 45.0284 33.6123 45.1841C33.5478 45.3398 33.5146 45.5067 33.5146 45.6752Z" fill="white" stroke="#45413C" stroke-linecap="round" stroke-linejoin="round"/>
<path d="M42.2205 32.2294V31.4564M43.8538 32.9002L44.408 32.3606M44.5393 34.5481H45.3122M43.8538 36.1814L44.408 36.7356M42.2205 36.8669V37.6398M40.5726 36.1814L40.033 36.7356M39.9018 34.5481H39.1143M40.5726 32.9002L40.033 32.3606M78.1101 33.396V31.3252M77.0747 32.3606H79.1455" stroke="#45413C" stroke-linecap="round" stroke-linejoin="round"/>
<path d="M60.9604 33.1771C61.0169 33.1724 61.0738 33.1804 61.1268 33.2006C61.1798 33.2208 61.2276 33.2526 61.2666 33.2938C61.3047 33.3374 61.3334 33.3884 61.351 33.4436C61.3685 33.4988 61.3746 33.557 61.3687 33.6146L60.625 38.4854C60.6096 38.5658 60.5686 38.6391 60.5082 38.6943C60.4477 38.7495 60.371 38.7837 60.2896 38.7917C60.2077 38.7992 60.1256 38.7788 60.0568 38.7337C59.988 38.6887 59.9364 38.6218 59.9104 38.5438L58.2916 33.95C58.2672 33.9001 58.2544 33.8452 58.2544 33.7896C58.2544 33.734 58.2672 33.6791 58.2916 33.6292C58.3232 33.5824 58.3642 33.5428 58.4119 33.5126C58.4595 33.4825 58.513 33.4626 58.5687 33.4542L60.9604 33.1771ZM69.375 35.2917C69.4201 35.3216 69.4588 35.3603 69.4888 35.4053C69.5189 35.4504 69.5397 35.501 69.55 35.5542C69.5558 35.613 69.5484 35.6723 69.5282 35.7279C69.508 35.7834 69.4756 35.8337 69.4333 35.875L65.8166 39.2146C65.7523 39.2654 65.6726 39.2931 65.5906 39.2931C65.5086 39.2931 65.4289 39.2654 65.3646 39.2146C65.2929 39.1699 65.2383 39.1026 65.2092 39.0234C65.1801 38.9441 65.1784 38.8575 65.2041 38.7771L66.6625 34.1542C66.6797 34.1017 66.7083 34.0536 66.746 34.0133C66.7838 33.973 66.83 33.9414 66.8812 33.9208C66.9308 33.8953 66.9858 33.8819 67.0416 33.8819C67.0974 33.8819 67.1524 33.8953 67.2021 33.9208L69.375 35.2917ZM51.4958 36.3854C51.4505 36.4194 51.4138 36.4634 51.3885 36.514C51.3631 36.5647 51.35 36.6205 51.35 36.6771C51.35 36.7337 51.3631 36.7895 51.3885 36.8401C51.4138 36.8908 51.4505 36.9348 51.4958 36.9688L55.0541 40.3812C55.1153 40.4326 55.191 40.4634 55.2707 40.4691C55.3503 40.4749 55.4297 40.4553 55.4976 40.4133C55.5655 40.3713 55.6184 40.3089 55.6487 40.2351C55.6791 40.1612 55.6853 40.0797 55.6666 40.0021L54.2083 35.3792C54.1954 35.3245 54.1685 35.2742 54.1301 35.2333C54.0917 35.1924 54.0432 35.1622 53.9896 35.1458C53.9396 35.1214 53.8847 35.1086 53.8291 35.1086C53.7735 35.1086 53.7187 35.1214 53.6687 35.1458L51.4958 36.3854ZM46.0416 43.0646C46.0211 43.1172 46.013 43.1739 46.0181 43.2302C46.0232 43.2865 46.0413 43.3409 46.071 43.3889C46.1007 43.437 46.1412 43.4776 46.1892 43.5073C46.2373 43.5371 46.2916 43.5553 46.3479 43.5604L51.2479 44.1292C51.3303 44.1411 51.4143 44.1244 51.4859 44.082C51.5576 44.0395 51.6125 43.9738 51.6416 43.8958C51.6715 43.8173 51.6733 43.7308 51.6467 43.6511C51.6201 43.5714 51.5668 43.5033 51.4958 43.4583L47.5 40.6875C47.4553 40.6574 47.4046 40.6376 47.3514 40.6295C47.2982 40.6213 47.2439 40.625 47.1923 40.6404C47.1407 40.6557 47.0932 40.6823 47.0531 40.7181C47.013 40.754 46.9813 40.7983 46.9604 40.8479L46.0416 43.0646Z" fill="white" stroke="#45413C" stroke-linejoin="round"/>
<path d="M41.8125 62.796L40.9375 66.3544L37.7729 65.5814C37.3575 65.4888 36.9224 65.5619 36.5601 65.7853C36.1979 66.0086 35.9371 66.3646 35.8333 66.7773L34.6812 71.4877C34.5195 72.1069 34.5425 72.7598 34.7472 73.3661C34.9519 73.9725 35.3294 74.5057 35.8333 74.9002L38.3562 76.7377L37.2916 81.1127L33.3395 78.0939C32.3173 77.3274 31.5428 76.2774 31.1124 75.0743C30.682 73.8713 30.6147 72.5683 30.9187 71.3273L32.5229 64.721C32.6493 64.2006 32.8773 63.7102 33.1937 63.278C33.5101 62.8458 33.9087 62.4804 34.3666 62.2026C34.8246 61.9249 35.3329 61.7403 35.8624 61.6594C36.3918 61.5786 36.932 61.603 37.452 61.7314L41.8125 62.796Z" fill="#E5FEFF" stroke="#45413C" stroke-linecap="round" stroke-linejoin="round"/>
<path d="M58.4225 89.0752C58.0461 88.5755 57.7866 87.9978 57.6629 87.3845C57.5392 86.7712 57.5546 86.138 57.7079 85.5315L62.9142 64.1523L42.6725 59.2231L37.4663 80.6169C37.3187 81.2274 37.0347 81.7965 36.6357 82.2814C36.2366 82.7664 35.7328 83.1546 35.1621 83.4169L58.4225 89.0752Z" fill="#FFE500"/>
<path d="M47.0039 86.3332L52.9831 61.7749L62.8852 64.1957L57.7081 85.5312C57.5578 86.1398 57.5466 86.7744 57.6753 87.3879C57.8041 88.0015 58.0695 88.5781 58.4518 89.0749L47.0039 86.3332Z" fill="#FFF48C"/>
<path d="M58.4225 89.0752C58.0461 88.5755 57.7866 87.9978 57.6629 87.3845C57.5392 86.7712 57.5546 86.138 57.7079 85.5315L62.9142 64.1523L42.6725 59.2231L37.4663 80.6169C37.3187 81.2274 37.0347 81.7965 36.6357 82.2814C36.2366 82.7664 35.7328 83.1546 35.1621 83.4169L58.4225 89.0752Z" stroke="#45413C" stroke-linecap="round" stroke-linejoin="round"/>
<path d="M55.9147 72.1002C55.8541 72.3363 55.8652 72.585 55.9467 72.8147C56.0282 73.0444 56.1764 73.2446 56.3723 73.3896C56.5682 73.5346 56.8029 73.6179 57.0464 73.6288C57.2899 73.6397 57.5311 73.5778 57.7391 73.4509C57.9472 73.3239 58.1127 73.1378 58.2144 72.9163C58.3161 72.6948 58.3495 72.4481 58.3102 72.2075C58.2709 71.967 58.1607 71.7436 57.9938 71.566C57.8268 71.3885 57.6107 71.2647 57.3731 71.2106C57.0618 71.1359 56.7335 71.1875 56.4602 71.3543C56.1869 71.521 55.9908 71.7892 55.9147 72.1002ZM43.2127 65.6544C43.1867 65.7578 43.1816 65.8654 43.1977 65.9709C43.2138 66.0763 43.2507 66.1775 43.3064 66.2685C43.3621 66.3595 43.4354 66.4384 43.5219 66.5008C43.6085 66.5631 43.7066 66.6075 43.8106 66.6314C43.915 66.6576 44.0235 66.6629 44.1299 66.6469C44.2363 66.631 44.3385 66.5942 44.4307 66.5386C44.5229 66.4831 44.6031 66.4098 44.6669 66.3232C44.7306 66.2365 44.7766 66.138 44.8022 66.0335C44.8525 65.8227 44.817 65.6006 44.7035 65.416C44.59 65.2314 44.4078 65.0994 44.197 65.0492C43.9862 64.9989 43.7641 65.0344 43.5795 65.1479C43.3949 65.2614 43.2629 65.4436 43.2127 65.6544Z" fill="#EBCB00"/>
<path opacity="0.15" d="M62.3023 66.5584H61.8648C61.4096 66.4381 60.9864 66.219 60.6253 65.9167L59.9398 68.7459C59.8707 69.0255 59.6941 69.2665 59.4484 69.4166C59.2027 69.5668 58.9076 69.614 58.6273 69.548C58.3478 69.4789 58.1068 69.3023 57.9566 69.0565C57.8064 68.8108 57.7592 68.5158 57.8253 68.2355L58.4961 65.4938C58.056 65.5321 57.6125 65.4976 57.1836 65.3917C56.9008 65.3203 56.6269 65.2176 56.3669 65.0855L55.1565 70.2917C55.0962 70.5417 54.9872 70.7772 54.8358 70.9851C54.6845 71.1929 54.4936 71.3688 54.2743 71.5029C54.0549 71.637 53.8113 71.7265 53.5573 71.7664C53.3033 71.8063 53.0439 71.7958 52.794 71.7355C52.5441 71.6752 52.3085 71.5662 52.1007 71.4148C51.8929 71.2634 51.7169 71.0726 51.5828 70.8532C51.4488 70.6339 51.3592 70.3902 51.3193 70.1362C51.2794 69.8823 51.2899 69.6229 51.3503 69.373L52.5898 64.3126C51.5426 64.0562 50.591 63.5045 49.8482 62.723C48.9843 63.1069 48.0175 63.1934 47.0992 62.9691C46.1808 62.7448 45.3628 62.2223 44.7732 61.4834C44.4292 61.6927 44.0471 61.8314 43.649 61.8915C43.2509 61.9516 42.8448 61.9319 42.4544 61.8334L42.0898 61.7167L42.6732 59.2959L62.8857 64.2251L62.3023 66.5584Z" fill="#45413C"/>
<path d="M40.5879 56.6124C40.6818 56.2241 40.8516 55.8583 41.0874 55.5358C41.3232 55.2133 41.6203 54.9406 41.9618 54.7333C42.3033 54.526 42.6823 54.3881 43.0772 54.3277C43.4721 54.2673 43.875 54.2854 44.2629 54.3812C44.511 54.4454 44.7508 54.5384 44.9774 54.6582C45.4849 53.9639 46.1857 53.4344 46.9924 53.1362C47.799 52.8379 48.6757 52.784 49.5129 52.9812C49.7905 53.0404 50.0599 53.1334 50.3149 53.2582C50.9928 52.5835 51.8314 52.0926 52.7517 51.8318C53.6719 51.5711 54.6434 51.5492 55.5745 51.7681C56.5056 51.987 57.3656 52.4395 58.0732 53.083C58.7809 53.7264 59.3129 54.5396 59.6191 55.4457C60.4568 55.6547 61.214 56.1068 61.7953 56.7452C62.3766 57.3836 62.756 58.1797 62.8858 59.0332C63.1378 59.0052 63.3921 59.0052 63.6441 59.0332C64.0319 59.129 64.3971 59.3002 64.7187 59.5371C65.0404 59.774 65.3122 60.0719 65.5187 60.4138C65.7252 60.7557 65.8624 61.135 65.9223 61.5299C65.9822 61.9249 65.9638 62.3277 65.8681 62.7155C65.7723 63.1033 65.6011 63.4685 65.3642 63.7901C65.1273 64.1118 64.8294 64.3836 64.4875 64.5901C64.1456 64.7967 63.7663 64.9338 63.3714 64.9937C62.9764 65.0537 62.5736 65.0352 62.1858 64.9395C61.7482 64.8302 61.3399 64.6261 60.9899 64.3416L60.3045 67.1562C60.2354 67.4357 60.0588 67.6767 59.8131 67.8269C59.5674 67.9771 59.2723 68.0243 58.992 67.9582C58.7125 67.8891 58.4714 67.7125 58.3213 67.4668C58.1711 67.2211 58.1239 66.926 58.1899 66.6457L58.8608 63.9041C58.1287 63.9647 57.3936 63.8287 56.7316 63.5103L55.4628 68.6582C55.4156 68.9205 55.3153 69.1703 55.168 69.3923C55.0208 69.6143 54.8296 69.8039 54.6064 69.9493C54.3832 70.0948 54.1326 70.193 53.87 70.2381C53.6074 70.2831 53.3383 70.274 53.0794 70.2112C52.8205 70.1485 52.5771 70.0335 52.3642 69.8732C52.1514 69.713 51.9736 69.5109 51.8417 69.2794C51.7098 69.0479 51.6266 68.7919 51.5973 68.5271C51.568 68.2622 51.5931 67.9942 51.6712 67.7395L52.9108 62.6791C51.8613 62.4282 50.9082 61.8756 50.1691 61.0895C49.3014 61.4682 48.3342 61.5552 47.4128 61.3374C46.5004 61.1199 45.6853 60.6073 45.0941 59.8791C44.3986 60.2992 43.5662 60.4301 42.7754 60.2437C42.0108 60.0406 41.3551 59.5482 40.9469 58.8706C40.5387 58.193 40.4099 57.3832 40.5879 56.6124Z" fill="white" stroke="#45413C" stroke-linecap="round" stroke-linejoin="round"/>
<path d="M42.0898 77.1314C42.032 77.3677 42.0458 77.6158 42.1296 77.8442C42.2134 78.0726 42.3632 78.2709 42.5601 78.4138C42.757 78.5567 42.992 78.6378 43.2351 78.6466C43.4782 78.6555 43.7184 78.5918 43.9252 78.4636C44.1319 78.3354 44.2959 78.1485 44.396 77.9268C44.4962 77.7051 44.5281 77.4586 44.4876 77.2188C44.4472 76.9789 44.3362 76.7565 44.1689 76.5799C44.0016 76.4033 43.7855 76.2805 43.5481 76.2272C43.2353 76.1607 42.909 76.2177 42.6372 76.3862C42.3654 76.5547 42.1693 76.8217 42.0898 77.1314ZM51.4231 81.9585C51.3971 82.0619 51.392 82.1695 51.4081 82.275C51.4242 82.3804 51.4612 82.4816 51.5169 82.5726C51.5725 82.6636 51.6458 82.7425 51.7324 82.8048C51.8189 82.8672 51.9171 82.9116 52.021 82.9355C52.1245 82.9615 52.2321 82.9666 52.3375 82.9505C52.443 82.9344 52.5441 82.8975 52.6351 82.8418C52.7261 82.7861 52.8051 82.7128 52.8674 82.6263C52.9297 82.5397 52.9742 82.4416 52.9981 82.3376C53.0394 82.2292 53.0572 82.1132 53.0501 81.9974C53.0431 81.8815 53.0115 81.7685 52.9574 81.6659C52.9033 81.5632 52.8279 81.4733 52.7363 81.4021C52.6447 81.3309 52.5389 81.28 52.4261 81.2528C52.3133 81.2256 52.196 81.2228 52.082 81.2446C51.968 81.2663 51.86 81.3121 51.7651 81.3789C51.6702 81.4456 51.5906 81.5319 51.5316 81.6318C51.4726 81.7317 51.4357 81.8431 51.4231 81.9585ZM56.4689 76.723C56.4429 76.8265 56.4378 76.9341 56.4539 77.0395C56.47 77.145 56.507 77.2462 56.5627 77.3372C56.6184 77.4281 56.6916 77.5071 56.7782 77.5694C56.8648 77.6318 56.9629 77.6762 57.0669 77.7001C57.1703 77.7261 57.2779 77.7312 57.3834 77.7151C57.4888 77.699 57.59 77.662 57.681 77.6064C57.772 77.5507 57.8509 77.4774 57.9132 77.3909C57.9756 77.3043 58.02 77.2062 58.0439 77.1022C58.0853 76.9938 58.103 76.8778 58.096 76.762C58.089 76.6461 58.0573 76.5331 58.0032 76.4305C57.9491 76.3278 57.8737 76.2379 57.7821 76.1667C57.6905 76.0954 57.5848 76.0445 57.472 76.0174C57.3591 75.9902 57.2418 75.9874 57.1278 76.0092C57.0139 76.0309 56.9058 76.0767 56.8109 76.1434C56.716 76.2102 56.6364 76.2964 56.5774 76.3964C56.5185 76.4963 56.4815 76.6077 56.4689 76.723ZM46.6981 70.2918C46.6597 70.4485 46.6686 70.6131 46.7237 70.7647C46.7787 70.9164 46.8775 71.0483 47.0074 71.1439C47.1374 71.2395 47.2928 71.2945 47.4539 71.3019C47.6151 71.3093 47.7748 71.2687 47.913 71.1854C48.0512 71.1021 48.1616 70.9798 48.2303 70.8338C48.299 70.6878 48.3229 70.5247 48.299 70.3652C48.2751 70.2056 48.2045 70.0567 48.0961 69.9372C47.9877 69.8178 47.8463 69.7331 47.6898 69.6939C47.4792 69.645 47.2578 69.6801 47.0727 69.7917C46.8876 69.9034 46.7532 70.0827 46.6981 70.2918Z" fill="#EBCB00"/>
<path d="M50.1688 75.7457C50.118 75.9526 50.1085 76.1674 50.1408 76.3779C50.1731 76.5884 50.2465 76.7905 50.3568 76.9726C50.4672 77.1548 50.6124 77.3134 50.784 77.4394C50.9557 77.5655 51.1505 77.6564 51.3573 77.7072C51.5642 77.7579 51.779 77.7675 51.9895 77.7352C52.2 77.7029 52.4021 77.6295 52.5842 77.5192C52.7664 77.4088 52.925 77.2636 53.051 77.092C53.177 76.9203 53.268 76.7255 53.3188 76.5187C53.311 75.3761 53.1139 74.2426 52.7355 73.1645C52.7208 73.1139 52.6928 73.0682 52.6543 73.0322C52.6157 72.9963 52.5682 72.9714 52.5167 72.9603C52.4649 72.9448 52.4096 72.9449 52.3578 72.9604C52.3059 72.976 52.2598 73.0064 52.225 73.0478C51.3983 73.8301 50.7039 74.7412 50.1688 75.7457Z" fill="white" stroke="#45413C"/>
<path d="M33.0041 84.7727C32.948 85.0074 32.939 85.2508 32.9777 85.489C33.0164 85.7272 33.1019 85.9553 33.2295 86.1601C33.357 86.365 33.5239 86.5425 33.7205 86.6823C33.9172 86.8221 34.1396 86.9215 34.3749 86.9748L57.6208 92.6331C58.0776 92.7091 58.5463 92.6099 58.9331 92.3551C59.3199 92.1004 59.5962 91.709 59.7068 91.2593C59.8174 90.8096 59.7541 90.3347 59.5295 89.9296C59.305 89.5246 58.9358 89.2193 58.4958 89.0748L35.177 83.4164C34.7093 83.3113 34.2189 83.3948 33.8122 83.6486C33.4055 83.9025 33.1152 84.3063 33.0041 84.7727ZM87.6916 49.2769L88.7416 52.7914L91.8624 51.8581C92.0673 51.7955 92.2826 51.7741 92.4958 51.7953C92.709 51.8165 92.9159 51.8797 93.1045 51.9815C93.293 52.0832 93.4595 52.2214 93.5943 52.388C93.7291 52.5545 93.8294 52.7462 93.8895 52.9519L95.2749 57.6039C95.4547 58.225 95.4452 58.8854 95.2478 59.5011C95.0504 60.1167 94.674 60.6595 94.1666 61.0602L91.7895 62.9998L93.0583 67.3748L96.9229 64.1664C97.902 63.3496 98.6201 62.2634 98.9882 61.0426C99.3562 59.8217 99.3582 58.5197 98.9937 57.2977L97.0833 50.7352C96.7728 49.6993 96.0641 48.8289 95.1127 48.315C94.1613 47.801 93.0448 47.6854 92.0083 47.9935L87.6916 49.2769Z" fill="#E5FEFF" stroke="#45413C" stroke-linecap="round" stroke-linejoin="round"/>
<path d="M72.4227 76.3439C72.7737 75.8293 73.0067 75.2434 73.105 74.6283C73.2034 74.0132 73.1646 73.3839 72.9915 72.7855L66.7061 51.6835L86.6415 45.748L92.9269 66.8501C93.1019 67.4532 93.4123 68.0084 93.8343 68.4734C94.2564 68.9384 94.779 69.301 95.3623 69.5335L72.4227 76.3439Z" fill="#FFE500"/>
<path d="M83.6811 73.0042L76.4769 48.7812L66.7061 51.6979L72.9915 72.8C73.1658 73.4015 73.2039 74.0342 73.103 74.6523C73.0021 75.2703 72.7647 75.8581 72.4081 76.3729L83.6811 73.0042Z" fill="#FFF48C"/>
<path d="M72.4227 76.3439C72.7737 75.8293 73.0067 75.2434 73.105 74.6283C73.2034 74.0132 73.1646 73.3839 72.9915 72.7855L66.7061 51.6835L86.6415 45.748L92.9269 66.8501C93.1019 67.4532 93.4123 68.0084 93.8343 68.4734C94.2564 68.9384 94.779 69.301 95.3623 69.5335L72.4227 76.3439Z" stroke="#45413C" stroke-linecap="round" stroke-linejoin="round"/>
<path d="M74.0704 59.2815C74.1442 59.5828 74.101 59.9009 73.9494 60.1715C73.7978 60.4422 73.5492 60.6453 73.2537 60.7398C73.0996 60.7858 72.9379 60.8009 72.7778 60.7844C72.6178 60.7678 72.4626 60.72 72.3211 60.6434C72.1796 60.5669 72.0545 60.4633 71.9531 60.3385C71.8516 60.2136 71.7757 60.07 71.7298 59.9158C71.6838 59.7617 71.6687 59.6 71.6852 59.4399C71.7017 59.2799 71.7496 59.1247 71.8261 58.9832C71.9026 58.8417 72.0063 58.7166 72.1311 58.6152C72.256 58.5137 72.3996 58.4378 72.5537 58.3919C72.7118 58.3481 72.877 58.3366 73.0396 58.3579C73.2021 58.3792 73.3588 58.4329 73.5002 58.5158C73.6417 58.5988 73.765 58.7093 73.863 58.8408C73.9609 58.9723 74.0314 59.1222 74.0704 59.2815ZM86.4371 52.194C86.4684 52.2974 86.4788 52.406 86.4678 52.5134C86.4569 52.6209 86.4247 52.7251 86.3731 52.8201C86.3216 52.915 86.2517 52.9988 86.1676 53.0666C86.0834 53.1343 85.9867 53.1847 85.8829 53.2148C85.7805 53.2459 85.6728 53.2562 85.5663 53.245C85.4599 53.2339 85.3567 53.2015 85.2629 53.1499C85.1691 53.0983 85.0866 53.0284 85.0203 52.9443C84.954 52.8603 84.9051 52.7638 84.8767 52.6606C84.8453 52.5591 84.8344 52.4524 84.8446 52.3467C84.8548 52.241 84.8859 52.1383 84.9361 52.0447C84.9863 51.9511 85.0546 51.8684 85.137 51.8014C85.2194 51.7344 85.3143 51.6844 85.4162 51.6544C85.6232 51.5906 85.8469 51.6116 86.0384 51.7128C86.2298 51.814 86.3732 51.9871 86.4371 52.194Z" fill="#EBCB00"/>
<path opacity="0.15" d="M67.4206 54.0603L67.8436 53.9728C68.2761 53.8427 68.6745 53.6186 69.0102 53.3165L69.8415 56.1019C69.8826 56.2379 69.9502 56.3644 70.0403 56.4743C70.1303 56.5842 70.2412 56.6752 70.3664 56.7422C70.4917 56.8093 70.6289 56.851 70.7703 56.865C70.9117 56.879 71.0545 56.865 71.1904 56.8238C71.3264 56.7826 71.4529 56.7151 71.5628 56.625C71.6727 56.5349 71.7637 56.4241 71.8307 56.2988C71.8978 56.1736 71.9395 56.0363 71.9535 55.8949C71.9675 55.7536 71.9535 55.6108 71.9123 55.4748L71.1102 52.7915C71.5536 52.8102 71.9969 52.756 72.4227 52.6311C72.7033 52.5473 72.9726 52.4298 73.2248 52.2811L74.6831 57.3707C74.7559 57.6168 74.8764 57.8461 75.0379 58.0456C75.1993 58.2451 75.3984 58.4109 75.6239 58.5334C75.8493 58.656 76.0967 58.7329 76.3519 58.7599C76.6072 58.7868 76.8652 58.7632 77.1113 58.6905C77.3574 58.6177 77.5867 58.4972 77.7862 58.3357C77.9857 58.1743 78.1515 57.9752 78.274 57.7497C78.3966 57.5243 78.4735 57.2769 78.5005 57.0217C78.5274 56.7664 78.5038 56.5084 78.4311 56.2623L76.9727 51.2603C78.0024 50.9492 78.9227 50.3525 79.6269 49.5394C80.5041 49.887 81.4722 49.9324 82.3781 49.6683C83.284 49.4042 84.076 48.8457 84.629 48.0811C85.3453 48.4626 86.1818 48.5515 86.9623 48.329L87.3269 48.1686L86.6123 45.7915L66.7061 51.6832L67.4206 54.0603Z" fill="#45413C"/>
<path d="M88.5958 43.0356C88.4821 42.6533 88.2942 42.2972 88.0428 41.9877C87.7914 41.6781 87.4814 41.4212 87.1306 41.2315C86.7798 41.0419 86.395 40.9233 85.9983 40.8825C85.6016 40.8418 85.2007 40.8796 84.8187 40.9939C84.5756 41.072 84.341 41.1746 84.1187 41.3002C83.5777 40.6285 82.8502 40.1317 82.0277 39.8722C81.2051 39.6128 80.3243 39.6022 79.4958 39.8418C79.2256 39.9157 78.9659 40.0235 78.7228 40.1627C78.0128 39.5215 77.1511 39.0719 76.219 38.8563C75.287 38.6406 74.3153 38.6661 73.3958 38.9303C72.4764 39.1945 71.6394 39.6886 70.9639 40.3661C70.2884 41.0436 69.7968 41.882 69.5353 42.8023C68.7079 43.0549 67.9739 43.5472 67.4262 44.2169C66.8785 44.8866 66.5417 45.7036 66.4583 46.5648C66.202 46.5761 65.9477 46.6152 65.6999 46.6814C64.9676 46.9454 64.3641 47.4795 64.0131 48.1743C63.662 48.869 63.5901 49.6718 63.8121 50.4179C64.0341 51.164 64.5331 51.7969 65.2068 52.1868C65.8805 52.5767 66.6779 52.694 67.4353 52.5148C67.8712 52.3852 68.2707 52.1554 68.602 51.8439L69.3749 54.6439C69.4581 54.9185 69.6469 55.1489 69.8999 55.2842C70.1529 55.4196 70.4493 55.449 70.7239 55.3658C70.9985 55.2826 71.2288 55.0938 71.3642 54.8408C71.4996 54.5879 71.5289 54.2915 71.4458 54.0168L70.6728 51.3335C71.117 51.3472 71.5603 51.2881 71.9853 51.1585C72.2654 51.0798 72.5347 50.9671 72.7874 50.8231L74.2458 55.9127C74.3966 56.4271 74.7456 56.8605 75.216 57.1176C75.6864 57.3747 76.2397 57.4344 76.7541 57.2835C77.2685 57.1327 77.7019 56.7837 77.959 56.3133C78.2161 55.8429 78.2758 55.2896 78.1249 54.7752L76.6666 49.7877C77.698 49.4803 78.6192 48.883 79.3208 48.0668C80.1998 48.4181 81.1711 48.4654 82.0801 48.2011C82.9891 47.9369 83.7837 47.3763 84.3374 46.6085C84.6861 46.8071 85.072 46.9316 85.4709 46.9743C85.8699 47.017 86.2734 46.9768 86.6562 46.8564C87.4195 46.6062 88.0524 46.0634 88.416 45.3471C88.7796 44.6308 88.8443 43.7995 88.5958 43.0356Z" fill="white" stroke="#45413C" stroke-linecap="round" stroke-linejoin="round"/>
<path d="M88.1294 63.6126C88.2015 63.8473 88.2014 64.0982 88.1291 64.3328C88.0568 64.5674 87.9158 64.7749 87.7242 64.9283C87.5326 65.0818 87.2993 65.1741 87.0546 65.1934C86.8099 65.2127 86.565 65.158 86.3517 65.0365C86.1385 64.9149 85.9667 64.7321 85.8586 64.5117C85.7505 64.2913 85.7111 64.0435 85.7455 63.8005C85.7799 63.5574 85.8865 63.3303 86.0516 63.1486C86.2166 62.9669 86.4324 62.8389 86.6711 62.7814C86.9743 62.7082 87.294 62.7535 87.565 62.908C87.836 63.0624 88.0378 63.3144 88.1294 63.6126ZM79.0586 68.8335C79.1205 69.0423 79.0968 69.2672 78.9929 69.4586C78.889 69.6501 78.7133 69.7924 78.5044 69.8543C78.2955 69.9162 78.0707 69.8926 77.8792 69.7886C77.6878 69.6847 77.5455 69.509 77.4836 69.3001C77.4244 69.0913 77.4492 68.8676 77.5528 68.6769C77.6563 68.4861 77.8304 68.3434 78.0377 68.2793C78.1411 68.248 78.2497 68.2375 78.3572 68.2485C78.4647 68.2595 78.5689 68.2917 78.6639 68.3432C78.7588 68.3948 78.8426 68.4646 78.9103 68.5488C78.9781 68.6329 79.0285 68.7297 79.0586 68.8335ZM73.7502 63.9189C73.7961 64.0741 73.7948 64.2395 73.7465 64.394C73.6982 64.5486 73.605 64.6852 73.4789 64.7867C73.3527 64.8882 73.1993 64.9498 73.038 64.9639C72.8767 64.978 72.7149 64.9438 72.5731 64.8657C72.4313 64.7876 72.3159 64.6691 72.2416 64.5253C72.1672 64.3815 72.1373 64.2188 72.1556 64.0579C72.1739 63.8971 72.2397 63.7453 72.3444 63.6219C72.4492 63.4984 72.5883 63.4089 72.744 63.3647C72.8464 63.3336 72.9541 63.3233 73.0605 63.3345C73.167 63.3456 73.2702 63.378 73.364 63.4296C73.4578 63.4813 73.5402 63.5512 73.6066 63.6352C73.6729 63.7192 73.7218 63.8157 73.7502 63.9189ZM83.1857 56.9918C83.2449 57.2006 83.22 57.4243 83.1165 57.6151C83.0129 57.8058 82.8389 57.9485 82.6315 58.0126C82.4767 58.0575 82.3122 58.0556 82.1585 58.0072C82.0048 57.9588 81.8689 57.866 81.7679 57.7405C81.6668 57.615 81.6052 57.4624 81.5906 57.3019C81.5761 57.1414 81.6094 56.9803 81.6863 56.8387C81.7631 56.6971 81.8802 56.5814 82.0226 56.5061C82.1651 56.4309 82.3267 56.3995 82.487 56.4158C82.6472 56.4322 82.7991 56.4956 82.9234 56.5981C83.0478 56.7006 83.139 56.8376 83.1857 56.9918Z" fill="#EBCB00"/>
<path d="M79.9916 62.6355C80.1135 63.0474 80.0667 63.4909 79.8616 63.8683C79.6564 64.2457 79.3098 64.5262 78.8979 64.648C78.486 64.7699 78.0425 64.7231 77.6651 64.5179C77.2877 64.3128 77.0072 63.9662 76.8854 63.5543C76.8342 62.4165 76.9722 61.2781 77.2937 60.1855C77.3062 60.1346 77.3315 60.0878 77.3673 60.0495C77.403 60.0112 77.448 59.9827 77.4979 59.9668C77.5439 59.9384 77.5969 59.9233 77.651 59.9233C77.7051 59.9233 77.7581 59.9384 77.8041 59.9668C78.6755 60.7296 79.4146 61.6314 79.9916 62.6355Z" fill="white" stroke="#45413C"/>
<path d="M97.5796 70.7731C97.652 71 97.6788 71.239 97.6586 71.4764C97.6384 71.7137 97.5714 71.9447 97.4617 72.1561C97.3519 72.3675 97.2015 72.5551 97.019 72.7082C96.8365 72.8613 96.6256 72.9768 96.3983 73.0481L73.4587 79.8731C73.0061 79.9691 72.534 79.8907 72.1366 79.6538C71.7392 79.4168 71.4459 79.0386 71.3151 78.5948C71.1844 78.151 71.2259 77.6742 71.4313 77.2597C71.6367 76.8451 71.991 76.5233 72.4233 76.3585L95.3483 69.5335C95.5762 69.4669 95.8151 69.4462 96.051 69.4725C96.287 69.4989 96.5154 69.5718 96.7229 69.6872C96.9305 69.8025 97.1131 69.9578 97.2601 70.1442C97.4072 70.3307 97.5158 70.5444 97.5796 70.7731Z" fill="#E5FEFF" stroke="#45413C" stroke-linecap="round" stroke-linejoin="round"/>
</svg>
