<svg width="40" height="40" viewBox="0 0 40 40" fill="none" xmlns="http://www.w3.org/2000/svg">
<g id="material-symbols:mail-outline">
<path id="Vector" d="M6.66634 33.3334C5.74967 33.3334 4.96523 33.0072 4.31301 32.355C3.66079 31.7028 3.33412 30.9178 3.33301 30V10C3.33301 9.08335 3.65967 8.29891 4.31301 7.64669C4.96634 6.99446 5.75079 6.6678 6.66634 6.66669H33.333C34.2497 6.66669 35.0347 6.99335 35.688 7.64669C36.3413 8.30002 36.6674 9.08446 36.6663 10V30C36.6663 30.9167 36.3402 31.7017 35.688 32.355C35.0358 33.0084 34.2508 33.3345 33.333 33.3334H6.66634ZM19.9997 21.6667L6.66634 13.3334V30H33.333V13.3334L19.9997 21.6667ZM19.9997 18.3334L33.333 10H6.66634L19.9997 18.3334ZM6.66634 13.3334V10V30V13.3334Z" fill="#252362"/>
</g>
</svg>
