<svg width="40" height="40" viewBox="0 0 40 40" fill="none" xmlns="http://www.w3.org/2000/svg">
<g id="material-symbols:map-outline-rounded">
<path id="Vector" d="M23.9167 34.625L15 31.5L7.25 34.5C6.97222 34.6111 6.70111 34.6461 6.43667 34.605C6.17222 34.5639 5.92944 34.4733 5.70833 34.3333C5.48611 34.1944 5.31278 34.0072 5.18833 33.7716C5.06389 33.5361 5.00111 33.265 5 32.9583V9.58331C5 9.2222 5.10444 8.90276 5.31333 8.62498C5.52222 8.3472 5.80667 8.13887 6.16667 7.99998L13.9167 5.37498C14.0833 5.31942 14.2572 5.27776 14.4383 5.24998C14.6194 5.2222 14.8067 5.20831 15 5.20831C15.1944 5.20831 15.3822 5.2222 15.5633 5.24998C15.7444 5.27776 15.9178 5.31942 16.0833 5.37498L25 8.49998L32.75 5.49998C33.0278 5.38887 33.2989 5.35442 33.5633 5.39665C33.8278 5.43887 34.0706 5.52887 34.2917 5.66665C34.5139 5.80554 34.6878 5.99331 34.8133 6.22998C34.9389 6.46665 35.0011 6.7372 35 7.04165V30.4166C35 30.7778 34.8961 31.0972 34.6883 31.375C34.4806 31.6528 34.1956 31.8611 33.8333 32L26.0833 34.625C25.9167 34.6805 25.7433 34.7222 25.5633 34.75C25.3833 34.7778 25.1956 34.7916 25 34.7916C24.8056 34.7916 24.6183 34.7778 24.4383 34.75C24.2583 34.7222 24.0844 34.6805 23.9167 34.625ZM23.3333 30.9166V11.4166L16.6667 9.08331V28.5833L23.3333 30.9166ZM26.6667 30.9166L31.6667 29.25V9.49998L26.6667 11.4166V30.9166ZM8.33333 30.5L13.3333 28.5833V9.08331L8.33333 10.75V30.5Z" fill="#252362"/>
</g>
</svg>
