<svg width="69" height="69" viewBox="0 0 69 69" fill="none" xmlns="http://www.w3.org/2000/svg">
<g id="Group 58">
<circle id="Ellipse 18" cx="34.5" cy="34.5" r="34.5" fill="#252362"/>
<path id="Vector" d="M36.25 22.2812V22.8417C36.5833 22.9058 36.9062 22.9859 37.1979 23.066C37.8646 23.2475 38.2604 23.9521 38.0833 24.6354C37.9062 25.3188 37.2187 25.7245 36.5521 25.543C35.9844 25.3882 35.4531 25.2814 34.9792 25.276C34.599 25.2707 34.2135 25.3668 33.9688 25.5109C33.8594 25.5803 33.8073 25.6391 33.7865 25.6711C33.7708 25.6978 33.75 25.7351 33.75 25.8206V25.8526C33.7604 25.8633 33.7969 25.9167 33.9219 25.9914C34.224 26.1782 34.6719 26.3224 35.349 26.5306L35.3958 26.5466C35.974 26.7227 36.7448 26.963 37.3698 27.3634C38.0833 27.8225 38.7292 28.5858 38.7448 29.7603C38.7604 30.9614 38.151 31.8369 37.3542 32.3494C37.0052 32.5683 36.6302 32.7231 36.2448 32.8192V33.385C36.2448 34.0951 35.6875 34.6663 34.9948 34.6663C34.3021 34.6663 33.7448 34.0951 33.7448 33.385V32.7765C33.25 32.6537 32.7969 32.4935 32.4115 32.3601C32.3021 32.3227 32.1979 32.2853 32.099 32.2533C31.4427 32.0291 31.0885 31.3031 31.3073 30.6304C31.526 29.9578 32.2344 29.5948 32.8906 29.819C33.026 29.8671 33.151 29.9098 33.2708 29.9525C33.9792 30.198 34.4896 30.3742 35.0365 30.3956C35.4531 30.4116 35.8229 30.3101 36.0365 30.1767C36.1354 30.1126 36.1823 30.0592 36.2031 30.0219C36.224 29.9898 36.25 29.9258 36.2448 29.803V29.7923C36.2448 29.7389 36.2448 29.6802 36.0365 29.5468C35.7396 29.3546 35.2917 29.2051 34.625 28.9969L34.526 28.9649C33.9635 28.794 33.224 28.5645 32.6302 28.1961C31.9271 27.7637 31.25 27.0217 31.2448 25.8419C31.2396 24.6194 31.9167 23.7813 32.6875 23.3115C33.0208 23.1087 33.3802 22.9699 33.7396 22.8738V22.2812C33.7396 21.5712 34.2969 21 34.9896 21C35.6823 21 36.2396 21.5712 36.2396 22.2812H36.25ZM49.5938 38.953C50.276 39.9032 50.0781 41.2378 49.151 41.9371L42.5573 46.9179C41.3385 47.8361 39.8698 48.3325 38.3542 48.3325H21.6667C20.7448 48.3325 20 47.5691 20 46.6242V43.2077C20 42.2628 20.7448 41.4994 21.6667 41.4994H23.5833L25.9219 39.5776C27.1042 38.606 28.5729 38.0828 30.0885 38.0828H38.3333C39.2552 38.0828 40 38.8462 40 39.7911C40 40.736 39.2552 41.4994 38.3333 41.4994H34.1667C33.7083 41.4994 33.3333 41.8838 33.3333 42.3535C33.3333 42.8233 33.7083 43.2077 34.1667 43.2077H40.4479L46.6823 38.4992C47.6094 37.7999 48.9115 38.0028 49.5938 38.953Z" fill="#FFBC00"/>
</g>
</svg>
