<svg width="69" height="69" viewBox="0 0 69 69" fill="none" xmlns="http://www.w3.org/2000/svg">
<g id="Group 75">
<g id="Group 58">
<circle id="Ellipse 18" cx="34.5" cy="34.5" r="34.5" fill="#252362"/>
</g>
<path id="Vector" d="M33.1875 23.1985C32.9531 23.1985 32.7188 23.4121 32.25 23.8392V25.5474H29.4066C28.5 24.6933 28.5 24.6933 27.5625 25.5474C26.625 26.4016 26.625 26.4016 27.5625 27.2557C28.5 28.1099 28.5 28.1099 29.3654 27.2557H32.25V28.964H34.125V27.2557H36.9787C37.9046 28.1099 37.9045 28.1099 38.842 27.2557C39.7795 26.4016 39.7795 26.4016 38.842 25.5474C37.9045 24.6933 37.9046 24.6933 36.9375 25.5474H34.125V23.8392C33.6562 23.4121 33.4219 23.1985 33.1875 23.1985ZM21 27.3625V41.0287H22.875V27.3625H21ZM24.75 29.9249L23.8125 29.0708V39.3205L24.75 38.4663V29.9249ZM33.1875 29.8181C31.3125 29.8181 30.3545 29.8181 30.3029 31.5264H25.6875V36.6513H29.4741C30.375 37.5054 31.3125 38.3596 33.1875 38.3596C35.0625 38.3596 36 37.5054 36.9375 36.6513C40.6875 36.6513 40.6875 36.6513 40.6875 38.3596V40.0678H46.3125V36.6513C46.3125 33.2347 44.4375 31.5264 40.6875 31.5264H36C36.0205 29.8181 35.0625 29.8181 33.1875 29.8181ZM39.75 40.922V41.7761H47.25V40.922H39.75ZM43.5 42.6303C43.5 42.6303 41.2252 45.3881 41.625 47.0077C41.8723 48.0092 42.3732 48.6093 43.5 48.6093C44.6268 48.6093 45.1277 48.0092 45.375 47.0077C45.7748 45.3881 43.5 42.6303 43.5 42.6303Z" fill="#FFBC00"/>
</g>
</svg>
