<svg width="69" height="69" viewBox="0 0 69 69" fill="none" xmlns="http://www.w3.org/2000/svg">
<g id="Group 77">
<g id="Group 58">
<circle id="Ellipse 18" cx="34.5" cy="34.5" r="34.5" fill="#252362"/>
</g>
<path id="Vector" d="M34.9375 32.47C36.0978 32.47 37.2106 32.0238 38.0311 31.2296C38.8516 30.4354 39.3125 29.3582 39.3125 28.235C39.3125 27.1118 38.8516 26.0346 38.0311 25.2404C37.2106 24.4462 36.0978 24 34.9375 24C33.7772 24 32.6644 24.4462 31.8439 25.2404C31.0234 26.0346 30.5625 27.1118 30.5625 28.235C30.5625 29.3582 31.0234 30.4354 31.8439 31.2296C32.6644 32.0238 33.7772 32.47 34.9375 32.47ZM27.8281 35.6462C28.5533 35.6462 29.2488 35.3674 29.7616 34.871C30.2744 34.3746 30.5625 33.7014 30.5625 32.9994C30.5625 32.2974 30.2744 31.6241 29.7616 31.1278C29.2488 30.6314 28.5533 30.3525 27.8281 30.3525C27.1029 30.3525 26.4074 30.6314 25.8946 31.1278C25.3818 31.6241 25.0938 32.2974 25.0938 32.9994C25.0938 33.7014 25.3818 34.3746 25.8946 34.871C26.4074 35.3674 27.1029 35.6462 27.8281 35.6462ZM44.7812 32.9994C44.7812 33.7014 44.4932 34.3746 43.9804 34.871C43.4676 35.3674 42.7721 35.6462 42.0469 35.6462C41.3217 35.6462 40.6262 35.3674 40.1134 34.871C39.6006 34.3746 39.3125 33.7014 39.3125 32.9994C39.3125 32.2974 39.6006 31.6241 40.1134 31.1278C40.6262 30.6314 41.3217 30.3525 42.0469 30.3525C42.7721 30.3525 43.4676 30.6314 43.9804 31.1278C44.4932 31.6241 44.7812 32.2974 44.7812 32.9994ZM34.9375 33.5287C36.3879 33.5287 37.7789 34.0865 38.8045 35.0793C39.8301 36.072 40.4062 37.4185 40.4062 38.8225V45.175H29.4688V38.8225C29.4688 37.4185 30.0449 36.072 31.0705 35.0793C32.0961 34.0865 33.4871 33.5287 34.9375 33.5287ZM27.2812 38.8225C27.2812 38.0888 27.3906 37.3805 27.5963 36.7114L27.4103 36.7262C26.4728 36.8258 25.6064 37.2569 24.977 37.9369C24.3477 38.6168 23.9998 39.4977 24 40.4106V45.175H27.2812V38.8225ZM45.875 45.175V40.4106C45.8751 39.4666 45.503 38.5581 44.8347 37.8707C44.1664 37.1832 43.2522 36.7685 42.2787 36.7114C42.4833 37.3805 42.5938 38.0888 42.5938 38.8225V45.175H45.875Z" fill="#FFBC00"/>
</g>
</svg>
