<svg width="64" height="63" viewBox="0 0 64 63" fill="none" xmlns="http://www.w3.org/2000/svg">
<path id="Vector" d="M50.5263 36.4737C54.0998 36.4737 57.5268 37.871 60.0536 40.3584C62.5805 42.8457 64 46.2192 64 49.7368C64 53.2545 62.5805 56.628 60.0536 59.1153C57.5268 61.6026 54.0998 63 50.5263 63C46.9529 63 43.5258 61.6026 40.999 59.1153C38.4722 56.628 37.0526 53.2545 37.0526 49.7368L37.3558 46.9184C37.2211 44.5974 36.7832 42.5747 35.5368 41.4474C34.8632 40.7842 33.92 40.4195 32.8421 40.2205C29.6084 42.0442 25.8695 43.1053 21.8947 43.1053C16.0879 43.1053 10.5189 40.8345 6.41282 36.7926C2.30676 32.7507 0 27.2687 0 21.5526C0 15.8365 2.30676 10.3545 6.41282 6.31262C10.5189 2.27072 16.0879 0 21.8947 0C27.7016 0 33.2706 2.27072 37.3767 6.31262C41.4827 10.3545 43.7895 15.8365 43.7895 21.5526C43.7895 25.4653 42.7116 29.1458 40.8589 32.3289C41.0611 33.39 41.4316 34.3184 42.1053 34.9816C43.2505 36.2084 45.3053 36.6395 47.6632 36.7721L50.5263 36.4737ZM15.1579 23.2105C16.4979 23.2105 17.7831 23.7345 18.7306 24.6673C19.6782 25.6 20.2105 26.8651 20.2105 28.1842C20.2105 29.5033 19.6782 30.7684 18.7306 31.7011C17.7831 32.6339 16.4979 33.1579 15.1579 33.1579C13.8179 33.1579 12.5327 32.6339 11.5851 31.7011C10.6376 30.7684 10.1053 29.5033 10.1053 28.1842C10.1053 26.8651 10.6376 25.6 11.5851 24.6673C12.5327 23.7345 13.8179 23.2105 15.1579 23.2105ZM21.8947 6.63158C13.4737 6.63158 6.73684 13.2632 6.73684 21.5526C6.73684 29.8421 13.4737 36.4737 21.8947 36.4737C30.3158 36.4737 37.0526 29.8421 37.0526 21.5526C37.0526 13.2632 30.3158 6.63158 21.8947 6.63158Z" fill="#FFBC00"/>
</svg>
