<svg width="42" height="69" viewBox="0 0 42 69" fill="none" xmlns="http://www.w3.org/2000/svg">
<path id="Vector" d="M41.3994 64.8998L29.7509 51.5192V28.0638H31.2078C32.4163 28.0638 33.3953 27.1137 33.3953 25.9406C33.3953 24.7675 32.4163 23.8174 31.2078 23.8174H27.5634C26.3548 23.8174 25.3759 24.7675 25.3759 25.9406V52.3367C25.3757 52.8624 25.5769 53.3694 25.9403 53.7592L34.8521 64.1991H7.14744L16.0593 53.7592C16.4227 53.3693 16.6238 52.8623 16.6237 52.3366V25.9407C16.6237 24.7676 15.6448 23.8174 14.4362 23.8174H10.7917C9.58316 23.8174 8.60425 24.7676 8.60425 25.9407C8.60425 27.1137 9.58316 28.0639 10.7917 28.0639H12.2486V51.5193L0.600186 64.8999C0.31689 65.2048 0.130605 65.5827 0.0638367 65.9881C-0.00293128 66.3935 0.0526745 66.809 0.223936 67.1844C0.395765 67.5599 0.676123 67.8789 1.03102 68.1028C1.38592 68.3267 1.80011 68.4458 2.22338 68.4458H39.7762C40.1995 68.4458 40.6137 68.3267 40.9686 68.1028C41.3234 67.8789 41.6038 67.5599 41.7756 67.1844C42.1256 66.418 41.9791 65.522 41.3994 64.8999V64.8998ZM18.8123 21.7026C21.2229 21.7026 23.1763 19.8055 23.1763 17.4668C23.1763 15.1301 21.2229 13.2331 18.8123 13.2331C16.4006 13.2331 14.4482 15.1301 14.4482 17.4668C14.4482 19.8055 16.4006 21.7026 18.8123 21.7026ZM33.0638 15.3998C37.3273 15.3998 40.7835 12.0599 40.7835 7.94086C40.7835 3.82178 37.3284 0.481934 33.0638 0.481934C28.8015 0.481934 25.3442 3.82178 25.3442 7.94086C25.3442 12.0599 28.8015 15.3998 33.0638 15.3998ZM33.0299 4.7156C34.8521 4.7156 36.3342 6.14772 36.3342 7.90894C36.3342 9.66911 34.8521 11.1023 33.0299 11.1023C31.2078 11.1023 29.7257 9.66911 29.7257 7.90894C29.7268 6.14772 31.2078 4.7156 33.0299 4.7156Z" fill="#FFBC00"/>
</svg>
