<svg width="71" height="71" viewBox="0 0 71 71" fill="none" xmlns="http://www.w3.org/2000/svg">
<path id="Vector" d="M12.4524 0.482521C9.73158 4.46343 8.0987 8.16931 7.66138 11.1884L11.1532 16.9411L15.3286 12.0239C15.4552 8.9074 14.5278 4.87258 12.4524 0.481934V0.482521ZM67.0308 0.914005C62.8793 3.32779 59.8265 5.96414 58.1417 8.4984L58.8346 15.2106L64.706 12.5752C66.1487 9.81665 67.0309 5.77463 67.0309 0.914005H67.0308ZM53.6471 4.9218C52.1661 8.01226 51.1965 10.9217 50.7069 13.4889L53.3873 21.9637L56.2726 16.9319L55.3245 7.79101H55.3289C54.8074 6.81187 54.2463 5.85467 53.647 4.9218H53.6471ZM2.08182 9.89877C2.06359 13.3313 2.43089 16.3779 3.08468 18.9066L9.12008 25.3934L9.57593 19.6041L4.8169 11.7628L4.82127 11.7581C3.9334 11.1013 3.0195 10.4811 2.08182 9.89877ZM21.4599 11.4461C20.2324 11.9608 19.0836 12.5057 18.0182 13.0759L12.2928 19.8295L11.8414 25.6141L19.1989 19.8706C20.178 17.5341 20.9625 14.6901 21.4599 11.4461ZM47.3111 14.6232C43.8067 23.1574 44.9538 29.0001 48.4595 30.5633L51.5457 25.1826L48.6875 16.1565C48.2417 15.6336 47.7827 15.1222 47.3108 14.6231L47.3111 14.6232ZM68.6126 14.6552C67.9489 14.6511 67.3041 14.6676 66.6754 14.6964L58.6337 18.3048L55.7484 23.341L64.8424 21.3349C66.7237 19.6498 68.6482 17.4232 70.4812 14.71C69.8455 14.6783 69.2209 14.6589 68.6123 14.6551L68.6126 14.6552ZM35.6321 15.9363C32.2421 19.3503 29.9676 22.6948 28.9906 25.5819L31.3881 31.8855L36.3798 27.8087C37.0647 24.767 36.881 20.6311 35.6321 15.9363ZM0.5 21.3988C0.978456 30.6206 4.50882 35.4011 8.34055 35.2959L8.82834 29.0933L2.40084 22.1884C1.77399 21.9091 1.14008 21.6458 0.5 21.3988ZM21.3916 23.07C20.4846 23.2617 19.5845 23.4852 18.693 23.7403L11.5497 29.3139L11.0666 35.4476C14.931 36.5509 19.4046 32.426 21.3913 23.0701L21.3916 23.07ZM23.7343 23.2996C23.0983 26.6691 22.9101 29.7288 23.0962 32.3348L27.8645 39.8273L29.3553 34.217L26.0867 25.6318H26.0911C25.3375 24.8224 24.5514 24.0443 23.7346 23.2996H23.7343ZM62.7413 24.6127L53.9069 26.5546L50.853 31.8802C53.8699 34.5533 59.6691 32.7668 65.4583 25.1773C64.5593 24.9576 63.6531 24.7693 62.7413 24.6127ZM42.5108 28.3634C41.2108 28.6455 39.9866 28.9746 38.8367 29.3414L31.9852 34.9285L30.4944 40.5391L38.7638 36.2371C40.1485 34.118 41.4366 31.4639 42.5106 28.3635L42.5108 28.3634ZM65.139 32.0455C61.3682 35.0313 58.7139 38.0777 57.4034 40.8283L59.0401 47.3706L64.4782 43.9225C65.5176 40.9857 65.8254 36.8576 65.139 32.0455ZM47.147 33.3082C42.1239 44.7047 38.4831 56.6762 37.9615 70.4816H40.6922C41.2112 57.1431 44.7143 45.5904 49.6358 34.4239L47.1468 33.3081L47.147 33.3082ZM20.1062 34.3228C18.914 43.4824 21.5232 48.825 25.3119 49.4181L26.9121 43.4132L21.8337 35.4431C21.2673 35.0551 20.6912 34.6816 20.106 34.3229L20.1062 34.3228ZM52.453 37.9269C51.4242 41.1947 50.8751 44.2103 50.7526 46.8198L54.6045 54.8404L56.7469 49.4456L54.518 40.5299H54.5267C53.8995 39.6707 53.2091 38.8022 52.4529 37.927L52.453 37.9269ZM8.33151 38.1519C7.06768 49.1093 7.14558 59.8708 10.1094 70.4819H12.9451C9.89976 60.0846 9.77038 49.4704 11.0395 38.4687L8.3318 38.1519H8.33151ZM40.3458 39.7818C39.3811 39.8053 38.4563 39.8611 37.5695 39.9471L29.542 44.1292L27.9602 50.0657C31.5617 51.8625 36.7034 48.623 40.3455 39.7818H40.3458ZM70.4999 45.2083C69.1765 45.3323 67.9232 45.5098 66.7393 45.7363L59.2771 50.4694L57.1346 55.8548L65.8504 52.5767C67.4754 50.6385 69.0674 48.1583 70.4999 45.2083ZM47.5529 48.4404C45.2878 57.393 47.2472 63.0127 50.9396 64.0543L53.2327 58.2836L49.1346 49.7582C48.6343 49.3175 48.1059 48.8789 47.5529 48.4404ZM24.8377 52.2006C22.9889 58.2583 21.5906 64.3279 20.9219 70.4819H23.6662C24.3236 64.6462 25.6631 58.842 27.4449 53.0037L24.8375 52.2005L24.8377 52.2006ZM64.2227 56.1166L55.7622 59.3029L53.4921 65.0141C56.8553 67.2322 62.3425 64.6313 67.0033 56.2865C66.0787 56.1973 65.1513 56.1407 64.2227 56.1168V56.1166ZM50.1098 66.9375C49.8364 68.0706 49.6452 69.2524 49.5765 70.4819H52.3023C52.368 69.4997 52.5284 68.5418 52.7583 67.5897L50.1099 66.9374L50.1098 66.9375Z" fill="#FEBF10"/>
</svg>
