<svg width="70" height="70" viewBox="0 0 70 70" fill="none" xmlns="http://www.w3.org/2000/svg">
<path id="Vector" d="M4.57956 69.3914C5.60581 65.1643 6.17329 61.4881 8.90676 58.5833C8.26588 57.8833 7.67357 57.1425 7.134 56.3661C3.80639 59.6602 2.48615 64.85 1.79485 68.8624L4.57956 69.3914ZM61.5079 56.1176C57.2435 52.5426 49.4878 49.4902 41.1249 48.3819C39.9742 56.7318 37.5501 63.9115 29.3074 65.5187C43.1621 70.5778 55.9766 67.797 61.5077 56.1177L61.5079 56.1176ZM33.2811 60.8705C36.8557 58.181 38.2775 52.4081 38.3642 46.4706C38.4445 40.9557 37.4112 35.4815 36.5302 32.6528C33.6129 31.8737 27.9865 31.0229 22.3504 31.2621C16.2833 31.5198 10.4221 33.0787 7.77751 36.6507C3.87641 43.5037 6.46554 52.3943 11.7712 57.5763C17.5304 62.2767 27.0796 65.3817 33.2811 60.8705ZM60.6815 52.1038C63.9525 49.0725 66.3857 44.8841 67.3032 39.1501C62.679 36.8951 58.892 36.0939 54.4255 35.5292C51.4205 39.1524 50.1635 43.0388 48.6206 47.0379C53.2146 48.2434 57.3816 49.9799 60.6815 52.1038ZM45.8246 46.3813C47.7196 39.4474 51.954 25.2156 48.1987 20.9049C44.8145 17.7603 28.9777 21.2578 22.2235 23.9671C22.5941 25.458 22.9017 26.9615 23.1456 28.4737C28.3538 28.6275 33.774 28.8812 38.7471 30.4168C40.3106 35.6559 41.1318 41.166 41.1879 45.6107C42.7419 45.8051 44.2888 46.0622 45.8248 46.3813L45.8246 46.3813ZM3.14487 40.6702C4.43769 32.5301 13.5793 29.2129 20.3176 28.616C18.9408 20.4741 15.5952 12.9828 11.8165 8.9195C-1.3826 15.0815 -1.67836 29.7899 3.14487 40.6702ZM65.5897 35.1674C67.6405 31.2868 68.9968 26.2791 69.132 22.2755C66.4535 21.4425 63.3024 21.2146 60.738 21.1548C59.8529 25.0406 58.078 29.0593 55.9188 32.9525C59.1601 33.4885 62.7378 34.1005 65.5897 35.1674ZM51.6878 34.5635C55.023 27.61 59.9828 18.0256 57.6826 11.3558C48.5836 10.3034 40.2615 14.0551 34.1387 17.8877C39.2236 17.0073 46.882 15.5807 50.4383 18.645C53.4053 23.0718 52.7441 27.5753 51.6878 34.5635ZM21.4707 21.2515C26.1839 20.1302 29.3888 17.5172 33.0676 15.2404C32.301 11.3927 31.2882 5.89049 28.9916 2.76071C23.1563 3.82456 18.9455 6.3248 15.9421 9.61008C18.2088 12.7739 20.1047 16.7964 21.4707 21.2515ZM67.1258 18.9462C68.5538 13.357 69.5611 6.47541 67.3005 1.67293C62.3243 -0.397747 55.3182 0.787418 49.646 2.34617C50.023 4.31946 50.2682 6.42756 50.3709 8.1113C54.0057 7.89552 56.8402 8.02695 59.8046 9.21565C61.1123 12.2189 61.4888 15.7608 61.2092 18.4053C63.2574 18.5104 65.2865 18.6269 67.1258 18.9462ZM35.6559 13.7071C39.5734 11.4822 43.6306 9.62956 47.5775 8.65113C47.4209 5.49144 47.295 2.67651 46.1876 0.481927C41.3441 0.979882 37.057 2.12166 33.1107 4.31977C34.3911 7.72007 35.099 10.601 35.6559 13.7071Z" fill="#FEBF10"/>
</svg>
