<svg width="43" height="69" viewBox="0 0 43 69" fill="none" xmlns="http://www.w3.org/2000/svg">
<path id="Vector" d="M41.8994 64.936L30.2509 51.5553V28.1H31.7078C32.9163 28.1 33.8953 27.1498 33.8953 25.9767C33.8953 24.8036 32.9163 23.8535 31.7078 23.8535H28.0634C26.8548 23.8535 25.8759 24.8036 25.8759 25.9767V52.3728C25.8757 52.8985 26.0769 53.4055 26.4403 53.7953L35.3521 64.2352H7.64744L16.5593 53.7953C16.9227 53.4054 17.1238 52.8984 17.1237 52.3727V25.9768C17.1237 24.8037 16.1448 23.8536 14.9362 23.8536H11.2917C10.0832 23.8536 9.10425 24.8037 9.10425 25.9768C9.10425 27.1499 10.0832 28.1 11.2917 28.1H12.7486V51.5554L1.10019 64.936C0.81689 65.2409 0.630605 65.6189 0.563837 66.0243C0.497069 66.4297 0.552675 66.8452 0.723936 67.2206C0.895765 67.596 1.17612 67.915 1.53102 68.1389C1.88592 68.3628 2.30011 68.4819 2.72338 68.4819H40.2762C40.6995 68.4819 41.1137 68.3628 41.4686 68.1389C41.8234 67.915 42.1038 67.596 42.2756 67.2206C42.6256 66.4541 42.4791 65.5581 41.8994 64.936V64.936ZM19.3123 21.7387C21.7229 21.7387 23.6763 19.8416 23.6763 17.5029C23.6763 15.1663 21.7229 13.2692 19.3123 13.2692C16.9006 13.2692 14.9482 15.1663 14.9482 17.5029C14.9482 19.8416 16.9006 21.7387 19.3123 21.7387ZM33.5638 15.4359C37.8273 15.4359 41.2835 12.0961 41.2835 7.97699C41.2835 3.85792 37.8284 0.518066 33.5638 0.518066C29.3015 0.518066 25.8442 3.85792 25.8442 7.97699C25.8442 12.0961 29.3015 15.4359 33.5638 15.4359ZM33.5299 4.75173C35.3521 4.75173 36.8342 6.18385 36.8342 7.94508C36.8342 9.70524 35.3521 11.1384 33.5299 11.1384C31.7078 11.1384 30.2257 9.70524 30.2257 7.94508C30.2268 6.18385 31.7078 4.75173 33.5299 4.75173Z" fill="#FFBC00"/>
</svg>
